<svg xmlns="http://www.w3.org/2000/svg" xmlns:xlink="http://www.w3.org/1999/xlink" version="1.1" id="Layer_1" x="0px" y="0px" viewBox="0 0 517.3 618" enable-background="new 0 0 517.3 618" xml:space="preserve"><g><defs><rect id="SVGID_1_" x="0" y="0" width="517.3" height="618"/></defs><clipPath id="SVGID_2_"><use xlink:href="#SVGID_1_" overflow="visible"/></clipPath><rect x="-3.5" y="557.1" clip-path="url(#SVGID_2_)" fill="#6D85AE" width="523" height="60.9"/><radialGradient id="SVGID_3_" cx="254.0455" cy="401.9654" r="517.6018" gradientUnits="userSpaceOnUse"><stop offset="0" stop-color="#88B0C5"/><stop offset="0.1818" stop-color="#7294A6"/><stop offset="0.5155" stop-color="#425A65"/><stop offset="0.7043" stop-color="#2A3940"/><stop offset="1" stop-color="#000000"/></radialGradient><path clip-path="url(#SVGID_2_)" fill="url(#SVGID_3_)" d="M-3.5-1.5v399c16.7 1 49 1.4 111.6-0.7 74.2-2.6 164.5-1.1 241.5-0.4 56.3 0.5 105.5 0.6 136-1.6 12.6-0.9 23.9-1.6 33.9-2.1V-1.5H-3.5z"/><g clip-path="url(#SVGID_2_)"><g><radialGradient id="SVGID_4_" cx="-58.8785" cy="266.6299" r="130.9867" gradientTransform="matrix(0.8825 0.4703 -0.4703 0.8825 414.062 120.9832)" gradientUnits="userSpaceOnUse"><stop offset="0" stop-color="#FFFFFF"/><stop offset="1" stop-color="#CFE0F3"/></radialGradient><path fill="url(#SVGID_4_)" d="M323.5 373.4c-25.7 48.2-85.6 66.5-133.8 40.8 -48.2-25.7-66.5-85.6-40.8-133.8 25.7-48.2 85.6-66.5 133.8-40.8C330.9 265.3 349.2 325.2 323.5 373.4z"/><path opacity="0.1" fill="#9899BD" d="M315.9 268.2c18.3 26.3 21.5 61.6 5.4 91.8 -22.9 43-76.3 59.2-119.3 36.3 -43-22.9-59.2-76.3-36.3-119.3 22.7-42.6 75.4-58.9 118.1-36.9 -0.4-0.2-0.7-0.4-1.1-0.6 -48.2-25.7-108.1-7.4-133.8 40.8 -25.7 48.2-7.4 108.1 40.8 133.8 48.2 25.7 108.1 7.4 133.8-40.8C342 338.7 337.7 297.9 315.9 268.2z"/><path opacity="0.4" fill="#FFFFFF" d="M320.2 332.5c-16.4 30.8-57.2 41.2-91 23.2 -33.8-18-47.9-57.6-31.5-88.5 16.4-30.8 57.2-41.2 91-23.2C322.5 262.1 336.6 301.7 320.2 332.5z"/><ellipse transform="matrix(0.8825 0.4703 -0.4703 0.8825 164.2777 -95.6034)" opacity="0.6" fill="#FFFFFF" cx="273.5" cy="280.9" rx="42.2" ry="38.5"/></g><g opacity="0.3"><path fill="#477CB1" d="M172.9 377.7c1.3-4.9 11.3-4.9 19.6 1.2 8.3 6.1 5.6 15 0 16.4C186.8 396.8 169.4 390.4 172.9 377.7z"/><path fill="#477CB1" d="M264.9 397.9c-0.8-4.4 3.8-10 11.1-11.6 7.4-1.6 14.2 0.8 15.4 7.5 1.1 6.7-6.9 13.1-13.3 11.3C271.8 403.3 265.9 403.1 264.9 397.9z"/><path fill="#477CB1" d="M192.4 405.4c1-3.7 9.2-1.1 9.2 3.9C201.7 414.3 191.3 409.5 192.4 405.4z"/><path fill="#477CB1" d="M216.6 406.9c1.6 1.7 6.3 3.6 7.2-1.5C224.8 400.3 211.6 401.4 216.6 406.9z"/><path fill="#477CB1" d="M251.6 413.6c3.5 0.4 8.4 0.6 9.2-4.1 0.7-4.7-9.8-4.4-12.1-2C246.4 410 248.5 413.2 251.6 413.6z"/><path fill="#477CB1" d="M302.7 303.8c2.3 1.8 9.2 2.3 10.3-3.9 1.1-6.2-6.5-9-10.3-7.7C298.9 293.5 295.7 298.2 302.7 303.8z"/><path fill="#477CB1" d="M291.5 272.4c2.5 2.3 12.1 3.4 14.3-0.7 2.3-4.1-3.7-9.8-11.5-10.3C286.6 260.9 282.5 264.4 291.5 272.4z"/><path fill="#477CB1" d="M232.9 259.2c3.1 2.2 12.4 0.8 13.2-4.4 0.8-5.2-8.2-6.4-13.2-4.6C227.9 251.9 227.1 255.1 232.9 259.2z"/><path fill="#477CB1" d="M210.9 246.2c3.5 1.6 8.6 1.1 8.8-1.3 0.2-2.5-3.1-3.9-6.7-3.6C209.4 241.6 206.6 244.2 210.9 246.2z"/><path fill="#477CB1" d="M166.2 267.6c0.5-2.5 3.1-0.5 3.3 0.8C169.7 269.8 165.6 271.2 166.2 267.6z"/><path fill="#477CB1" d="M172.4 300.7c-0.8-2.2 2.7-1.6 2.8 0C175.4 302.3 173 302.3 172.4 300.7z"/><path fill="#477CB1" d="M163.4 352.1c1.1 2 4.5 1 4.2-1.8C167.4 347.5 162.3 350.1 163.4 352.1z"/><path fill="#477CB1" d="M158.4 374.2c0.5 0.8 3 1.7 3.1-1C161.6 370.4 157.2 372.2 158.4 374.2z"/><path fill="#477CB1" d="M239.5 420.6c1.7 0.9 3.4-0.7 2.8-2.7C241.7 416 235.9 418.8 239.5 420.6z"/><path fill="#477CB1" d="M231.4 419.9c1.2-1.3-2-1.8-3.2-0.8C227 420 229.9 421.5 231.4 419.9z"/><path fill="#477CB1" d="M222.1 415.6c1.4 0.9 2.5 0.4 2.6-0.9C224.8 413.5 219.6 414 222.1 415.6z"/><path fill="#477CB1" d="M235.4 389.8c-0.3-0.8 3.2-1.2 2.9 0C238 391.1 236.1 391.3 235.4 389.8z"/><path fill="#477CB1" d="M291.5 345.3c0-1.8 3-1.7 3.1 0C294.7 347 291.5 347.1 291.5 345.3z"/><path fill="#477CB1" d="M307.4 316c-0.1-1.8 3.4-2 3.6 0C311 317.9 307.5 317.8 307.4 316z"/><path fill="#477CB1" d="M281.2 251.5c-0.3-2.1 2.2-2.1 2.6 0C284.2 253.6 281.3 252.6 281.2 251.5z"/><path fill="#477CB1" d="M264 250.8c-1.9-1.4 1-2.6 2.2-1.5C267.5 250.4 266.1 252.3 264 250.8z"/><path fill="#477CB1" d="M247.7 243.1c-1.2-0.6 0.4-3 2-1.8C251.3 242.4 248.9 243.7 247.7 243.1z"/><path fill="#477CB1" d="M238.9 236.2c-1.3-1.6 1.6-1.1 2.6-0.6C242.4 236.1 241 238.6 238.9 236.2z"/><path fill="#477CB1" d="M260.4 240.9c-1.2-2.5 2-0.7 1.7 0C261.8 241.6 260.4 240.9 260.4 240.9z"/><path fill="#477CB1" d="M239.1 241.2c-1.1-0.9 1-1 1 0C240.2 242.1 239.1 241.2 239.1 241.2z"/><path fill="#477CB1" d="M220.3 242.2c-0.6-0.4 0.8-1.5 1.5-0.7C222.5 242.3 221.3 243 220.3 242.2z"/><path fill="#477CB1" d="M197.6 257.2c-1.1-0.9 2.2-2 3.4-0.8C202.3 257.7 199.4 258.6 197.6 257.2z"/></g></g><path opacity="0.1" clip-path="url(#SVGID_2_)" fill="#FFFFFF" d="M521.6 126.8c-10.2-8-44.6-25.5-62.9-2.2 0 0-6.8-0.8-10.1 6.3 0 0-20.9-10.9-49.3-0.6 -28.4 10.2-24.1 25.4-24.1 25.4s-9.8-1.2-12.5 9c0 0-26.1-7.8-33.5 9.8 -7.8 18.5 22.9 17.5 22.9 17.5s-0.1 10.8 21.4 13.5c21.5 2.8 31.7 0.9 31.7 0.9s-3.6 15 23.7 22.2c27.3 7.2 40.5-2.9 40.5-2.9s2.2 9.8 30.1 7.6c27.9-2.1 27.9-14.5 27.9-14.5L521.6 126.8z"/><path opacity="0.1" clip-path="url(#SVGID_2_)" fill="#FFFFFF" d="M380.4 179.1c2.7-10.2 12.5-9 12.5-9s-4.3-15.1 24.1-25.4c28.4-10.2 49.3 0.6 49.3 0.6 3.3-7 10.1-6.2 10.1-6.2 12.1-15.4 31.2-12.9 45.7-7.2l-0.3-5.1c-10.2-8-44.6-25.5-62.9-2.2 0 0-6.8-0.8-10.1 6.3 0 0-20.9-10.9-49.3-0.6 -28.4 10.2-24.1 25.4-24.1 25.4s-9.8-1.2-12.5 9c0 0-26.1-7.8-33.5 9.8 -5.5 13 8.1 16.4 16.6 17.2 0.2-0.9 0.5-1.7 0.9-2.7C354.3 171.3 380.4 179.1 380.4 179.1z"/><path opacity="0.1" clip-path="url(#SVGID_2_)" fill="#FFFFFF" d="M-18.5 105c0 0 34.2-14 44.5 3.2 0 0 14.2-8.2 23.5 3 0 0 52-23 67 16.2 0 0 28.3 1.3 30.5 14 2 11.8-17.5 13.8-17.5 13.8S127 174.1 92 173.2c0 0-6.5 21.8-44 21.3 0 0-5.5 21.2-51.5 7.2 0 0-25.8 23.5-46.8-2S-18.5 105-18.5 105z"/><path opacity="0.2" clip-path="url(#SVGID_2_)" fill="#FFFFFF" d="M160.9 113.5c-2.2-12.7-30.5-14-30.5-14 -15-39.2-67-16.2-67-16.2 -9.2-11.2-23.5-3-23.5-3C29.6 63-4.6 77-4.6 77s-20.7 27.2-31 53.7C-26.9 116-18.5 105-18.5 105s34.2-14 44.5 3.2c0 0 14.3-8.2 23.5 3 0 0 52-23 67 16.2 0 0 15.1 0.7 24.1 6 2.5-3.4 2.9-6.2 2.9-6.2S162.9 125.3 160.9 113.5z"/><defs><filter id="Adobe_OpacityMaskFilter" filterUnits="userSpaceOnUse" x="101.8" y="207" width="268.4" height="268.4"><feColorMatrix type="matrix" values="1 0 0 0 0  0 1 0 0 0  0 0 1 0 0  0 0 0 1 0"/></filter></defs><mask maskUnits="userSpaceOnUse" x="101.8" y="207" width="268.4" height="268.4" id="SVGID_5_"><g filter="url(#Adobe_OpacityMaskFilter)"><defs><filter id="Adobe_OpacityMaskFilter_1_" filterUnits="userSpaceOnUse" x="101.8" y="207" width="268.4" height="268.4"><feFlood result="back" style="flood-color:white;flood-opacity:1"/><feBlend in="SourceGraphic" in2="back" mode="normal"/></filter></defs><mask maskUnits="userSpaceOnUse" x="101.8" y="207" width="268.4" height="268.4" id="SVGID_5_"><g filter="url(#Adobe_OpacityMaskFilter_1_)"/></mask><radialGradient id="SVGID_6_" cx="236.0229" cy="341.1778" r="134.1785" gradientUnits="userSpaceOnUse"><stop offset="0.3206" stop-color="#FFFFFF"/><stop offset="0.4665" stop-color="#B1B1B1"/><stop offset="0.6188" stop-color="#666666"/><stop offset="0.7453" stop-color="#2F2F2F"/><stop offset="0.8392" stop-color="#0D0D0D"/><stop offset="0.8901" stop-color="#000000"/><stop offset="1" stop-color="#000000"/></radialGradient><circle clip-path="url(#SVGID_2_)" mask="url(#SVGID_5_)" fill="url(#SVGID_6_)" cx="236" cy="341.2" r="134.2"/></g></mask><g clip-path="url(#SVGID_2_)"><defs><filter id="Adobe_OpacityMaskFilter_2_" filterUnits="userSpaceOnUse" x="101.8" y="207" width="268.4" height="268.4"><feFlood result="back" style="flood-color:white;flood-opacity:1"/><feBlend in="SourceGraphic" in2="back" mode="normal"/></filter></defs><mask maskUnits="userSpaceOnUse" x="101.8" y="207" width="268.4" height="268.4" id="SVGID_7_"><g filter="url(#Adobe_OpacityMaskFilter_2_)"><defs><filter id="Adobe_OpacityMaskFilter_3_" filterUnits="userSpaceOnUse" x="101.8" y="207" width="268.4" height="268.4"><feFlood result="back" style="flood-color:white;flood-opacity:1"/><feBlend in="SourceGraphic" in2="back" mode="normal"/></filter></defs><mask maskUnits="userSpaceOnUse" x="101.8" y="207" width="268.4" height="268.4" id="SVGID_7_"><g filter="url(#Adobe_OpacityMaskFilter_3_)"/></mask><radialGradient id="SVGID_8_" cx="236.0229" cy="341.1778" r="134.1785" gradientUnits="userSpaceOnUse"><stop offset="0.3206" stop-color="#FFFFFF"/><stop offset="0.8918" stop-color="#FFFFFF"/><stop offset="1" stop-color="#000000"/></radialGradient><circle mask="url(#SVGID_7_)" fill="url(#SVGID_8_)" cx="236" cy="341.2" r="134.2"/></g></mask><radialGradient id="SVGID_9_" cx="236.0229" cy="341.1778" r="134.1785" gradientUnits="userSpaceOnUse"><stop offset="0.3206" stop-color="#FFFFFF"/><stop offset="0.8918" stop-color="#FFFFFF"/><stop offset="1" stop-color="#FFFFFF"/></radialGradient></g><linearGradient id="SVGID_10_" gradientUnits="userSpaceOnUse" x1="258.0449" y1="391.3515" x2="258.0449" y2="478.7987"><stop offset="0" stop-color="#546789"/><stop offset="2.895635e-02" stop-color="#536587"/><stop offset="0.3891" stop-color="#43526F"/><stop offset="0.7222" stop-color="#3A4660"/><stop offset="1" stop-color="#37425B"/></linearGradient><path clip-path="url(#SVGID_2_)" fill="url(#SVGID_10_)" d="M485.6 394.8c-30.5 2.2-79.7 2.1-136 1.6 -77-0.7-167.3-2.2-241.5 0.4 -62.6 2.2-94.9 1.7-111.6 0.7v69.9c4.8-0.2 10.6-0.8 17.5-1.7 45-6.1 62.8-2 92 4.5 29.2 6.5 34.5 6.1 48.3 2.4 13.8-3.6 20.3-4.1 38.1 0.8 17.8 4.9 88.4 4.5 121.2-7.3 32.8-11.8 45.4-9.7 71-9.7s51.1-3.2 73.4-9.3c12.2-3.3 37.2-5.6 61.5-4.3v-19.9 -30.1C509.5 393.2 498.2 393.9 485.6 394.8z"/><linearGradient id="SVGID_11_" gradientUnits="userSpaceOnUse" x1="250.3963" y1="341.3351" x2="263.5478" y2="521.072"><stop offset="4.257020e-02" stop-color="#717A9E"/><stop offset="0.3353" stop-color="#6C7699"/><stop offset="0.6856" stop-color="#5D6A8B"/><stop offset="1" stop-color="#4A5A79"/></linearGradient><path opacity="0.4" clip-path="url(#SVGID_2_)" fill="url(#SVGID_11_)" d="M519.5 417.2v-24.5c-36.2 2.1-85.9 5.5-113.1 4h0c0.9 0.3 2.1 0.5 3.8 0.6 9.9 0.5 28.5 3.5 31.3 7.5 2.7 3.8-80.1 5.8-45.2 9.7 5.3 0.6 72.6 0 77.1 2.9 3.4 2.2-74.6 3.9-71.7 6.9 2.4 2.5 76.9 5.4 79.5 5.7 8.9 1.3-14.1 3-20.7 3.4 -20 1.1-3.2 3.2 7.7 5.5 -21 8-44.9 15.4-70.1 9.5 -38.9-9.1-27.2-12.5-87.9 11.3 -99.9 39.1-115.2-14.2-153.8 2.5 -33.9 14.6-65.2-2.3-96-7.2 -3.4-0.6-7-1.2-10.7-1.6 -38.1-4.4 39.1-9.2 4.2-11.2 -6.5-0.4-29.6-2.1-20.7-3.4 2.6-0.4 77.1-3.3 79.5-5.7 2.8-3-75.1-4.7-71.7-6.9 4.5-2.9 71.8-2.3 77.1-2.9 34.9-3.9-47.9-5.9-45.2-9.7 2.8-4 21.4-7 31.3-7.5 9.9-0.5 7-5.7-24.8-3.3 -20.1 1.6-0.3-2.4 9.5-5.5 -35 1.3-67 1-94 0.2v28.5l-0.6 0.1c-0.2 5.1-0.7 10.1-1.2 15.2 0.5 8.1 1.7 16.2 2.4 24.2 0.4-0.1 0.7-0.2 1.1-0.3V503h525.1v-85.5L519.5 417.2z"/><path clip-path="url(#SVGID_2_)" fill="#6D85AE" d="M476.9 545.9c-1.7-2.7-8.7-3.3-18.3 0 -9.7 3.3-8-6-23 5.7s-28 3.3-54.3 8 -26.7-1.1-37.7 5.9c-11 7.1 1.3 7.7-51.7 10.1 -53 2.3-83.3 5-102.3 2.3s-16.3-9.7-46.3-7.3 -53.3 4.3-65.7 1.7c-12.3-2.7 0.3-11.8-18.3-10.9 -18.7 0.9-19 0.2-23-4.4 -3.7-4.3-6.8-4.1-39.7-6.6v23c5.2-1.6 10.5-3.7 15-3.7 10.7 0 3.3 5 11 6.7 7.7 1.7 6.3 9.7 17 20.7 10.7 11 34.7 2.7 47.3 4 12.7 1.3 18-15.7 34.3-10 16.3 5.7 25.3-5.7 37-1.3 11.7 4.3 18.3-2.7 32 2.3 13.7 5 53-1 65.3-3.7s16.3-1.3 34.3 2 29.7 1.7 49.3-3.7c19.7-5.4 24 9.7 55.3 6s18.3 4.7 46.3 0 35.7-5.3 73-2c2 0.2 3.9 0.3 5.7 0.4v-36.4c-6.7-1.4-7.5-3.1-22.3-3.3C475.5 550.9 478.5 548.5 476.9 545.9z"/><linearGradient id="SVGID_12_" gradientUnits="userSpaceOnUse" x1="258.0449" y1="539.544" x2="258.0449" y2="579.5721"><stop offset="0" stop-color="#4A5A79"/><stop offset="1" stop-color="#303A52"/></linearGradient><path clip-path="url(#SVGID_2_)" fill="url(#SVGID_12_)" d="M454.5 535.2c-25.3-2.7-41.7-4.3-51 2.3 -9.3 6.7-14.7 6.3-40.7 6.7 -26 0.3-30.7-1.3-44 11.7 -13.3 13-84.3 7.3-123 9.3 -38.7 2-79.7-7.3-102-7.7 -22.3-0.3-25.3-7-10.7-11.3s-13.3-6.3-57.3-4c-10.4 0.6-20.3 0.6-29.3 0.3v7.7c32.8 2.6 36 2.3 39.7 6.6 4 4.7 4.3 5.3 23 4.4 18.7-0.9 6 8.2 18.3 10.9 12.3 2.7 35.7 0.7 65.7-1.7s27.3 4.7 46.3 7.3 49.3 0 102.3-2.3c53-2.3 40.7-3 51.7-10.1 11-7.1 11.3-1.3 37.7-5.9s39.3 3.7 54.3-8 13.3-2.3 23-5.7c9.7-3.3 16.7-2.7 18.3 0s-1.3 5 20.3 5.3c14.8 0.2 15.6 1.9 22.3 3.3v-20.4C500.7 535.9 470.8 536.9 454.5 535.2z"/><linearGradient id="SVGID_13_" gradientUnits="userSpaceOnUse" x1="258.0449" y1="476.0441" x2="258.0449" y2="529.5534"><stop offset="0" stop-color="#25293D"/><stop offset="0.489" stop-color="#272D42"/><stop offset="1" stop-color="#2D374E"/></linearGradient><path clip-path="url(#SVGID_2_)" fill="url(#SVGID_13_)" d="M458 447.1c-22.3 6.1-47.8 9.3-73.4 9.3s-38.1-2-71 9.7c-32.8 11.8-103.4 12.2-121.2 7.3 -17.8-4.9-24.3-4.5-38.1-0.8 -13.8 3.6-19.1 4.1-48.3-2.4 -29.2-6.5-47-10.5-92-4.5 -6.9 0.9-12.7 1.5-17.5 1.7v51.9c14 1.6 34.6-2.5 45 2.2C56 528 74 513.5 80 519s23.5 1 34.5 7 30.5 6 53 2.9 53-2.9 83.5-0.4 55.5-7 68.5-14.5 15 0 39 0 38.5-12 48.5-22 23-2 39-8.5 10.5-8.5 50-7.1c8.2 0.3 16.1 0.8 23.5 1.3v-34.9C495.2 441.6 470.2 443.8 458 447.1z"/><linearGradient id="SVGID_14_" gradientUnits="userSpaceOnUse" x1="258.0449" y1="498.5444" x2="258.0449" y2="562.5444"><stop offset="0.2969" stop-color="#1E283A"/><stop offset="0.5562" stop-color="#232E41"/><stop offset="0.9392" stop-color="#323D55"/><stop offset="1" stop-color="#354059"/></linearGradient><path clip-path="url(#SVGID_2_)" fill="url(#SVGID_14_)" d="M446 483.5c-16 6.5-29-1.5-39 8.5s-24.5 22-48.5 22 -26-7.5-39 0 -38 17-68.5 14.5 -61-2.7-83.5 0.4 -42 3.1-53-2.9S86 524.5 80 519s-24 9-38.5 2.5c-10.4-4.7-31-0.6-45-2.2v23.1c9.1 0.3 19 0.2 29.3-0.3 44-2.3 72-0.3 57.3 4s-11.7 11 10.7 11.3c22.3 0.3 63.3 9.7 102 7.7 38.7-2 109.7 3.7 123-9.3 13.3-13 18-11.3 44-11.7 26-0.3 31.3 0 40.7-6.7 9.3-6.7 25.7-5 51-2.3 16.2 1.7 46.1 0.6 65-1.1v-56.4c-7.4-0.6-15.3-1-23.5-1.3C456.5 475 462 477 446 483.5z"/><g opacity="0.5" clip-path="url(#SVGID_2_)"><path fill="#8BA0C3" d="M14.2 555.8c4.6-1.4 9.1 3.5 4.8 5 -4.3 1.4-8.9 1-8.1-0.8C11.8 558.1 10.4 557 14.2 555.8z"/><path fill="#8BA0C3" d="M44.5 576.5c2.2-1.3 2.6 1.1 2.6 2.5C47.2 580.4 38.8 580 44.5 576.5z"/><path fill="#8BA0C3" d="M51.6 584.2c2.7-2.2 7.9-5.2 9.2-3s5.7 5.1 4.4 8.2c-1.3 3.2-1.5 3-6.7 2.2C53.3 590.8 44.3 590.2 51.6 584.2z"/><path fill="#8BA0C3" d="M80.6 581c1.8-1 5.1 1.8 3.4 3.1S76.3 583.5 80.6 581z"/><path fill="#8BA0C3" d="M134.1 579c-1.1 0.9-1.9 2.9 0.5 3 2.4 0.1 4.6-0.1 4.2-1.5C138.4 579 137.3 576.5 134.1 579z"/><path fill="#8BA0C3" d="M190.7 585c2.1-1 3.6 0.5 1.7 2.3C190.5 589 186.8 586.8 190.7 585z"/><path fill="#8BA0C3" d="M274.7 579.7c-0.9-0.1-2.5 0.5-1.7 2.5 0.8 2 5.6 0.1 3.9-1.3C275.2 579.6 274.7 579.7 274.7 579.7z"/><path fill="#8BA0C3" d="M307.5 583.8c-1.5 1.6-2.5 4.4 1.8 4.2 4.3-0.3 4.7-1.8 3.4-3.2C311.5 583.3 310.3 580.9 307.5 583.8z"/><path fill="#8BA0C3" d="M382.7 576.1c4 0 8.9 0.5 8.2 4.4 -0.6 4-9 5.7-10.9 2.6C378.2 580 378.2 576.1 382.7 576.1z"/><path fill="#8BA0C3" d="M394.2 580.4c1.6 0 1.4 1 0 1.6C392.8 582.5 391.4 580.4 394.2 580.4z"/><path fill="#8BA0C3" d="M456.2 571.7c3.4 0.1 5.5 0.9 5.4 2.8 -0.1 1.9-2.8 3-6.2 2.7C452.1 577 448.9 571.5 456.2 571.7z"/><path fill="#8BA0C3" d="M455.6 558.4c3.2-0.4 7.5-1.3 4.6-4.5 -2.9-3.3-6.4-3.5-10.1-1C446.4 555.4 445.9 559.8 455.6 558.4z"/><path fill="#8BA0C3" d="M504.2 567.5c1.3 0.7 3.5 4 0.8 4.3 -2.8 0.2-6.3-1.9-4.3-3.3S503.7 567.2 504.2 567.5z"/><path fill="#8BA0C3" d="M485.6 573.7c1.9-0.2 3.5 2.6 0 2.7S483 574 485.6 573.7z"/><path fill="#8BA0C3" d="M499.5 579c1.6 0.3 1.8-1.2 0.6-2.3C498.8 575.6 496.3 578.4 499.5 579z"/><path fill="#8BA0C3" d="M441.3 569.5c1.7-0.7 2.2 0.9 1.1 1.8C441.3 572.2 437.8 570.9 441.3 569.5z"/><path fill="#8BA0C3" d="M435.9 576.9c1.8-0.2 2.4 2.5 0 2.8C433.5 580 432.4 577.2 435.9 576.9z"/><path fill="#8BA0C3" d="M316.9 585.2c2-0.4 2 1.9 0.6 2.1C316.2 587.4 314.9 585.5 316.9 585.2z"/><path fill="#8BA0C3" d="M204.5 584.7c0.4-0.2 2.3 0.2 1.3 1.6S203 585.5 204.5 584.7z"/><path fill="#8BA0C3" d="M153.9 582c1.2-0.4 2.8 0.2 1.4 1.7C153.9 585.3 152.7 582.4 153.9 582z"/><path fill="#8BA0C3" d="M23.9 561.1c1.4-0.5 2.6 0.8 0.9 1.5C23.2 563.4 22.5 561.6 23.9 561.1z"/></g><g opacity="0.05" clip-path="url(#SVGID_2_)"><path fill="#8BA0C3" d="M5.6 471.9c7.8-1.4 15.3 3.5 8 5 -7.3 1.4-14.9 1-13.5-0.8C1.5 474.2-0.7 473.1 5.6 471.9z"/><path fill="#8BA0C3" d="M10.3 477.4c3.6-1.3 4.4 1.1 4.4 2.5C14.7 481.2 0.8 480.8 10.3 477.4z"/><path fill="#8BA0C3" d="M70.9 481.9c3-1 8.5 1.8 5.8 3.1C73.9 486.2 63.6 484.3 70.9 481.9z"/><path fill="#8BA0C3" d="M168.4 478.8c-1.9 0.9-3.2 2.9 0.9 3 4.1 0.1 7.7-0.1 7-1.5C175.5 478.8 173.7 476.3 168.4 478.8z"/><path fill="#8BA0C3" d="M274.1 483.5c3.6-1 6.1 0.5 2.9 2.3C273.8 487.5 267.6 485.3 274.1 483.5z"/><path fill="#8BA0C3" d="M289 479c-1.5-0.1-4.2 0.5-2.9 2.5 1.4 2 9.4 0.1 6.5-1.3C289.8 478.9 289 479 289 479z"/><path fill="#8BA0C3" d="M475.6 472.3c-2.5 1.6-4.2 4.4 3 4.2 7.3-0.3 7.9-1.8 5.8-3.2C482.2 471.8 480.3 469.4 475.6 472.3z"/><path fill="#8BA0C3" d="M128.4 512.2c2.6 0 2.3 1 0 1.6C126.1 514.3 123.7 512.3 128.4 512.2z"/><path fill="#8BA0C3" d="M340.1 500.3c3.1-0.2 5.9 2.6 0 2.7C334.3 503.1 335.8 500.6 340.1 500.3z"/><path fill="#8BA0C3" d="M363.3 505.6c2.8 0.3 3.1-1.2 1-2.3C362.2 502.3 358 505.1 363.3 505.6z"/><path fill="#8BA0C3" d="M177.6 498c2.9-0.7 3.6 0.9 1.8 1.8C177.6 500.7 171.8 499.3 177.6 498z"/><path fill="#8BA0C3" d="M206.9 499.1c3.1-0.2 4.1 2.5 0 2.8C202.8 502.3 201 499.4 206.9 499.1z"/><path fill="#8BA0C3" d="M491.4 473.7c3.4-0.4 3.3 1.9 1 2.1C490.2 475.9 487.9 474.1 491.4 473.7z"/><path fill="#8BA0C3" d="M297.3 483.2c0.7-0.2 3.8 0.2 2.2 1.6C297.8 486.2 294.8 484 297.3 483.2z"/><path fill="#8BA0C3" d="M201.5 481.8c2-0.4 4.8 0.2 2.4 1.7C201.5 485.1 199.5 482.2 201.5 481.8z"/><path fill="#8BA0C3" d="M21.9 477.2c2.3-0.5 4.3 0.8 1.5 1.5C20.7 479.5 19.6 477.6 21.9 477.2z"/></g><g opacity="0.05" clip-path="url(#SVGID_2_)"><path fill="#8BA0C3" d="M507.7 493c-9.7 1.4-19.2-3.5-10.1-5 9.1-1.4 18.6-1 16.9 0.8C512.9 490.7 515.7 491.8 507.7 493z"/><path fill="#8BA0C3" d="M494 484.5c-4.5 1.3-5.5-1.1-5.5-2.5S505.9 481.1 494 484.5z"/><path fill="#8BA0C3" d="M400.5 521.6c-3.7 1-10.6-1.8-7.2-3.1C396.7 517.3 409.6 519.2 400.5 521.6z"/><path fill="#8BA0C3" d="M143.5 534.7c-4.5 1-7.6-0.5-3.6-2.3C143.9 530.7 151.7 532.9 143.5 534.7z"/><path fill="#8BA0C3" d="M252.5 538.1c1.9 0.1 5.3-0.5 3.6-2.5 -1.7-2-11.8-0.1-8.2 1.3C251.6 538.2 252.5 538.1 252.5 538.1z"/><path fill="#8BA0C3" d="M472.1 532.8c3.2-1.6 5.3-4.4-3.8-4.2 -9.1 0.3-9.9 1.8-7.2 3.2C463.7 533.3 466.2 535.7 472.1 532.8z"/><path fill="#8BA0C3" d="M287.4 547.8c-3.3 0-2.8-1 0-1.6C290.3 545.7 293.3 547.8 287.4 547.8z"/><path fill="#8BA0C3" d="M123.9 559.7c-7.2-0.1-11.6-0.9-11.4-2.8 0.2-1.9 5.9-3 12.9-2.7C132.5 554.4 139.1 559.8 123.9 559.7z"/><path fill="#8BA0C3" d="M5.5 532.1c-2.7-0.7-7.3-4-1.6-4.3 5.8-0.2 13.3 1.9 9.1 3.3S6.5 532.3 5.5 532.1z"/><path fill="#8BA0C3" d="M79.3 541c-3.9 0.2-7.3-2.6 0-2.7C86.7 538.2 84.8 540.7 79.3 541z"/><path fill="#8BA0C3" d="M50.3 535.7c-3.5-0.3-3.9 1.2-1.2 2.3C51.7 539 56.9 536.2 50.3 535.7z"/><path fill="#8BA0C3" d="M225.8 553.9c-3.6 0.7-4.5-0.9-2.3-1.8C225.8 551.2 233.2 552.6 225.8 553.9z"/><path fill="#8BA0C3" d="M189.2 552.8c-3.8 0.2-5.1-2.5 0-2.8C194.3 549.7 196.5 552.5 189.2 552.8z"/><path fill="#8BA0C3" d="M297.2 551.1c-4.3 0.4-4.2-1.9-1.3-2.1C298.7 548.9 301.4 550.7 297.2 551.1z"/><path fill="#8BA0C3" d="M242.2 533.9c-0.9 0.2-4.8-0.2-2.7-1.6C241.6 530.9 245.3 533.1 242.2 533.9z"/><path fill="#8BA0C3" d="M479.5 484.7c-2.9 0.5-5.4-0.8-1.9-1.5C481 482.4 482.4 484.2 479.5 484.7z"/></g><path opacity="0.5" clip-path="url(#SVGID_2_)" fill="#273147" d="M458.2 473.5c-14.8 23-52.7 2.2-77.7 29.7S321 490.5 281.2 516c-39.8 25.5-107.3 2-140.3 12.2 -33 10.2-27.3-27.9-67.7-11.7C32.9 532.8 31 506 8 512c-3.1 0.8-7.1 0.9-11.5 0.5v6.8c14 1.6 34.6-2.5 45 2.2C56 528 74 513.5 80 519s23.5 1 34.5 7 30.5 6 53 2.9 53-2.9 83.5-0.4 55.5-7 68.5-14.5 15 0 39 0 38.5-12 48.5-22 23-2 39-8.5 10.5-8.5 50-7.1c8.2 0.3 16.1 0.8 23.5 1.3v-4.3C494.2 470.3 467.2 459.6 458.2 473.5z"/><linearGradient id="SVGID_15_" gradientUnits="userSpaceOnUse" x1="258.0449" y1="394.0524" x2="258.0449" y2="478.723"><stop offset="0" stop-color="#546789"/><stop offset="2.895635e-02" stop-color="#536587"/><stop offset="0.3891" stop-color="#43526F"/><stop offset="0.7222" stop-color="#3A4660"/><stop offset="1" stop-color="#37425B"/></linearGradient><path opacity="0.5" clip-path="url(#SVGID_2_)" fill="url(#SVGID_15_)" d="M459 445.7c-24.9 10.4-62 10.4-82.9 1.9 -21-8.5-42 13.8-70.8 21.1 -24.6 6.2-97.5 9.7-120.1-1.4 -22.6-11-37.4 15.5-96.9-1 -27.5-7.6-60.5-9-91.6-2.1v3.2c4.8-0.2 10.6-0.8 17.5-1.7 45-6.1 62.8-2 92 4.5 29.2 6.5 34.5 6.1 48.3 2.4 13.8-3.6 20.3-4.1 38.1 0.8 17.8 4.9 88.4 4.5 121.2-7.3 32.8-11.8 45.4-9.7 71-9.7s51.1-3.2 73.4-9.3c12.2-3.3 37.2-5.6 61.5-4.3v-12C499.6 430.5 473.2 439.8 459 445.7z"/><linearGradient id="SVGID_16_" gradientUnits="userSpaceOnUse" x1="258.0449" y1="539.2485" x2="258.0449" y2="579.2762"><stop offset="0" stop-color="#4A5A79"/><stop offset="1" stop-color="#303A52"/></linearGradient><path opacity="0.5" clip-path="url(#SVGID_2_)" fill="url(#SVGID_16_)" d="M415 543.2c4.3 9.2-90 7-79.9 15.1s-41.1 16.9-113.7 13c-72.6-3.9-182.4-3.1-151.9-20.4 19.9-11.3-33.5-7.9-73-4.1v3.1c32.8 2.6 36 2.3 39.7 6.6 4 4.7 4.3 5.3 23 4.4 18.7-0.9 6 8.2 18.3 10.9 12.3 2.7 35.7 0.7 65.7-1.7s27.3 4.7 46.3 7.3 49.3 0 102.3-2.3c53-2.3 40.7-3 51.7-10.1 11-7.1 11.3-1.3 37.7-5.9s39.3 3.7 54.3-8 13.3-2.3 23-5.7c9.7-3.3 16.7-2.7 18.3 0s-1.3 5 20.3 5.3c14.8 0.2 15.6 1.9 22.3 3.3v-9.4C479.5 538.5 411.3 535.2 415 543.2z"/><linearGradient id="SVGID_17_" gradientUnits="userSpaceOnUse" x1="258.0417" y1="454.3864" x2="258.0417" y2="505.7239"><stop offset="0" stop-color="#4A5A79"/><stop offset="1" stop-color="#303A52"/></linearGradient><path opacity="0.6" clip-path="url(#SVGID_2_)" fill="url(#SVGID_17_)" d="M433 470.1c0.6-6.7 9.8-9.5 15.1-10.2 6.1-0.8 12.4-1.1 18.6-1.2 6.2 0 12.5 0 18.7 0.7 6.1 0.7 12.2 1.5 18.4 1.7 6.1 0.1 9.8-4.9 15.7-5.3 0.5-1.2-4.7-1.6-5.7-1.8 -6.2-0.8-12.4-0.6-18.6-0.7 -8.8 0-17.6 0.4-26.4 1.3 -10.3 1-20.7 2.4-30.9 4.6 -6.5 1.4-14.8 2.6-20.3 6.6 -0.6 0.4-3 2.6-2.5 3.6 4.3 9.2-90 7-79.9 15.1s-41.1 16.9-113.7 13c-72.6-3.9-182.4-3.1-151.9-20.4 19.9-11.3-33.5-7.9-73-4.1v3.1c32.8 2.6 36 2.3 39.7 6.6 4 4.7 4.3 5.3 23 4.4 18.7-0.9 6 8.2 18.3 10.9 12.3 2.7 35.7 0.7 65.7-1.7s27.3 4.7 46.3 7.3c19 2.7 49.3 0 102.3-2.3 53-2.3 40.7-3 51.7-10.1 11-7.1 11.3-1.3 37.7-5.9 26.3-4.7 39.3 3.7 54.3-8 2.3-1.8-0.6-3.5-1.8-4.9C433.1 471.8 432.9 471 433 470.1z"/><g opacity="0.7" clip-path="url(#SVGID_2_)"><path fill="#FFFFFF" d="M78.4 549.2c0 0-0.2 0.1-0.6 0.4 -0.3 0.3-0.9 0.7-1.3 1.5 -0.2 0.4-0.3 0.8-0.2 1.3 0.1 0.4 0.4 0.9 0.9 1.3 0.9 0.8 2.3 1.5 3.9 2 3.2 1.1 7.3 2 12.1 2.7 4.8 0.7 10.2 1.3 16.2 1.8 5.9 0.6 12.4 1 19.3 1.4 6.8 0.4 14.1 1 21.5 1.3 7.5 0.4 15.2 0.7 23.1 0.8 3.9 0 7.9 0 11.9 0 4 0 8-0.1 12-0.2 8-0.2 16-0.3 23.9-0.6 3.9-0.1 7.8-0.2 11.7-0.3 3.9-0.1 7.7-0.3 11.4-0.4 7.5-0.2 14.7-0.7 21.6-0.9 3.4-0.2 6.7-0.4 10-0.6 3.2-0.1 6.3-0.4 9.3-0.6 3-0.2 5.8-0.4 8.5-0.8 2.7-0.3 5.3-0.5 7.7-0.9 4.8-0.6 9-1.4 12.3-2.2 0.8-0.2 1.6-0.4 2.4-0.6 0.7-0.2 1.4-0.5 2-0.7 1.3-0.4 2.3-0.9 3.1-1.3 0.4-0.2 0.7-0.5 1-0.7 0.3-0.2 0.4-0.4 0.6-0.6 0.3-0.4 0.3-0.5 0.3-0.5l0.3 0c0 0 0 0.1 0 0.2 -0.1 0.1-0.1 0.3-0.2 0.5 -0.2 0.2-0.3 0.4-0.6 0.7 -0.3 0.2-0.6 0.5-1 0.8 -0.8 0.4-1.8 1.1-3.1 1.5 -0.6 0.2-1.3 0.6-2 0.8 -0.7 0.2-1.5 0.5-2.4 0.7 -3.4 1-7.5 1.9-12.3 2.8 -1.2 0.2-2.4 0.4-3.7 0.6 -1.3 0.2-2.6 0.4-4 0.6 -2.7 0.4-5.6 0.7-8.6 1 -6 0.7-12.5 1.2-19.3 1.7 -3.4 0.2-7 0.4-10.6 0.5 -3.6 0.2-7.3 0.3-11.1 0.4 -3.8 0.1-7.6 0.2-11.4 0.2 -3.9 0-7.8 0-11.7 0.1 -3.9 0-7.9 0-11.9 0 -4-0.1-8-0.2-12-0.2 -8-0.1-16-0.3-23.9-0.4 -7.9-0.1-15.6-0.2-23.1-0.2 -3.8 0-7.4-0.1-11.1-0.2 -3.6 0-7.1-0.2-10.6-0.3 -6.9-0.3-13.4-0.9-19.4-1.5 -6-0.7-11.5-1.4-16.3-2.3 -4.8-1-9-1.9-12.2-3.4 -1.6-0.7-3-1.5-4-2.5 -0.5-0.5-0.8-1.1-1-1.7 -0.1-0.6 0.1-1.2 0.3-1.6 0.5-0.8 1.1-1.2 1.5-1.5 0.4-0.3 0.6-0.4 0.6-0.4L78.4 549.2z"/><path fill="#FFFFFF" d="M352.9 544.8c0 0 0.7 0 1.9-0.1 1.2 0 3.1-0.1 5.4-0.1 2.3 0 5.2 0 8.4 0 3.2 0 6.9-0.1 10.8-0.3 4-0.2 8.2-0.7 12.5-1.7 4.3-1 8.8-2.5 12.8-4.8 1-0.6 1.9-1.3 2.9-1.9 0.5-0.3 1-0.6 1.5-1 0.6-0.3 1.1-0.6 1.7-0.8 2.3-1 4.9-1.5 7.5-1.9 2.6-0.3 5.3-0.5 8-0.5 2.7 0 5.3 0 8 0.2 2.7 0.1 5.3 0.3 8 0.5 2.6 0.2 5.3 0.4 7.9 0.6 5.2 0.4 10.3 0.9 15.3 1.2 2.5 0.2 4.9 0.3 7.3 0.5 2.4 0.1 4.7 0.2 7 0.3 4.6 0.2 8.9 0.3 12.8 0.3 4 0 7.6-0.1 10.9-0.2 3.2-0.1 6-0.3 8.4-0.5 2.3-0.1 4.1-0.3 5.4-0.5 1.2-0.1 1.9-0.2 1.9-0.2l0 0.2c0 0-0.7 0.1-1.9 0.3 -1.2 0.2-3 0.5-5.3 0.8 -2.3 0.3-5.1 0.6-8.4 0.9 -3.2 0.3-6.9 0.5-10.9 0.6 -4 0.1-8.4 0.1-13 0 -4.6-0.1-9.4-0.4-14.4-0.8 -5-0.4-10.1-0.9-15.3-1.5 -2.6-0.3-5.2-0.6-7.9-0.8 -2.6-0.3-5.3-0.6-7.9-0.8 -2.6-0.2-5.3-0.4-7.9-0.5 -2.6 0-5.3 0.1-7.8 0.3 -2.6 0.3-5.1 0.9-7.3 1.9l-1.6 0.8 -1.4 1c-1 0.7-1.9 1.4-2.9 2.1 -4 2.6-8.5 4.4-12.9 5.5 -4.5 1.1-8.9 1.5-12.9 1.7 -4 0.2-7.7 0.1-11 0 -3.3-0.1-6.1-0.2-8.4-0.4 -4.7-0.2-7.3-0.4-7.3-0.4L352.9 544.8z"/><path fill="#FFFFFF" d="M-3.5 542.4c0 0 1.3-0.3 3.7-0.7 2.4-0.4 5.7-0.9 9.8-1.3 2-0.2 4.2-0.4 6.6-0.5 2.3-0.1 4.8-0.1 7.4-0.1 2.6 0 5.2 0 7.9-0.1 2.7-0.1 5.4-0.3 8.1-0.5 2.7-0.2 5.5-0.3 8.1-0.4 2.7-0.1 5.3 0 7.9 0 2.6 0 5 0.2 7.4 0.3 2.3 0.2 4.6 0.4 6.6 0.6 2 0.3 3.9 0.6 5.5 0.8 1.6 0.2 3.1 0.6 4.2 0.8 2.3 0.5 3.7 0.9 3.7 0.9l0 0.2c0 0-1.4-0.1-3.7-0.3 -1.2-0.1-2.6-0.3-4.3-0.3 -1.7-0.1-3.5-0.2-5.5-0.3 -2-0.1-4.2-0.2-6.6-0.3 -2.3 0-4.8-0.2-7.3-0.3 -5.1-0.2-10.5-0.4-16-0.5 -2.7-0.1-5.5-0.2-8.1 0 -1.3 0-2.7 0.1-4 0.2 -1.3 0.1-2.6 0.2-3.9 0.4 -2.5 0.2-5 0.6-7.3 0.7 -2.3 0.2-4.5 0.3-6.6 0.4 -2 0.1-3.9 0.2-5.6 0.3 -1.7 0.1-3.1 0.1-4.3 0.1 -1.2 0-2.1 0-2.8 0 -0.6 0-1 0-1 0L-3.5 542.4z"/></g><path opacity="0.5" clip-path="url(#SVGID_2_)" fill="#FFFFFF" d="M516.7 431.8c0 0-0.2 0-0.6 0 -0.4 0-0.9 0-1.7-0.1 -1.5 0-3.6 0-6.3 0.3 -0.7 0.1-1.4 0.1-2.1 0.2 -0.7 0.1-1.5 0.2-2.3 0.4 -1.6 0.2-3.4 0.5-5.2 0.9 -0.9 0.2-1.9 0.4-2.9 0.6 -1 0.2-2 0.4-3 0.7 -2 0.6-4.2 1.2-6.5 1.8 -2.2 0.7-4.5 1.5-6.9 2.3 -1.2 0.4-2.4 0.8-3.6 1.3 -1.2 0.5-2.5 0.9-3.7 1.4 -5 1.9-10.4 3.8-16 5.6 -5.6 1.7-11.5 3.3-17.5 4.6 -6.1 1.3-12.3 2.1-18.6 2.6 -6.3 0.5-12.6 0.2-18.8-0.4 -1.5-0.2-3.1-0.3-4.6-0.5 -1.5-0.2-3-0.5-4.5-0.8 -0.7-0.1-1.5-0.3-2.2-0.4 -0.7-0.1-1.5-0.3-2.2-0.5 -1.5-0.3-2.9-0.7-4.3-1 -1.4-0.3-2.8-0.6-4.2-1 -1.4-0.3-2.8-0.7-4.2-0.9 -1.4-0.2-2.7-0.4-4.1-0.7 -1.3-0.1-2.7-0.2-4-0.3 -5.3-0.3-10.3 0.2-14.7 1.7 -4.4 1.5-8.1 3.7-11.3 5.6 -3.3 1.9-6.2 3.6-8.7 4.6 -1.2 0.6-2.4 0.9-3.4 1.3 -1 0.4-1.9 0.5-2.6 0.7 -1.4 0.3-2.2 0.5-2.2 0.5s0.8-0.2 2.2-0.6c0.7-0.2 1.6-0.4 2.6-0.8 1-0.4 2.1-0.8 3.4-1.4 2.5-1.1 5.3-2.9 8.5-4.9 3.2-2 6.9-4.4 11.4-6 4.5-1.6 9.7-2.3 15.1-2.1 1.4 0.1 2.7 0.1 4.1 0.3 1.4 0.2 2.8 0.4 4.2 0.6 1.4 0.2 2.8 0.5 4.2 0.8 1.4 0.3 2.8 0.6 4.3 0.9 1.4 0.3 2.9 0.6 4.3 0.9 0.7 0.2 1.4 0.3 2.2 0.5 0.7 0.1 1.5 0.2 2.2 0.4 1.5 0.2 3 0.5 4.5 0.7 1.5 0.2 3 0.3 4.5 0.5 6.1 0.5 12.3 0.7 18.5 0.2 6.2-0.4 12.3-1.2 18.3-2.4 6-1.2 11.8-2.8 17.4-4.5 5.6-1.7 10.9-3.5 16-5.3 1.3-0.4 2.5-0.9 3.7-1.3 1.2-0.4 2.5-0.8 3.7-1.2 2.4-0.8 4.7-1.6 7-2.2 2.3-0.6 4.5-1.1 6.5-1.7 1-0.3 2.1-0.4 3.1-0.6 1-0.2 2-0.4 2.9-0.5 1.9-0.4 3.7-0.6 5.3-0.7 0.8-0.1 1.6-0.2 2.4-0.3 0.8-0.1 1.5-0.1 2.2-0.1 2.7-0.2 4.9-0.1 6.4-0.1 0.7 0.1 1.3 0.1 1.7 0.1C516.5 431.8 516.7 431.8 516.7 431.8z"/><path opacity="0.5" clip-path="url(#SVGID_2_)" fill="#FFFFFF" d="M12.6 461.5c0 0 0.9-0.2 2.5-0.6 1.6-0.3 4.1-0.8 7.2-1.2 3.1-0.4 6.9-0.8 11.3-1 4.4-0.3 9.3-0.3 14.7 0 5.4 0.3 11.2 0.8 17.3 1.8 1.5 0.2 3.1 0.6 4.6 0.8 1.6 0.3 3.1 0.6 4.7 1 1.6 0.4 3.2 0.8 4.8 1.1 1.6 0.4 3.2 0.8 4.8 1.2 6.5 1.6 13.2 3.1 20.2 4.1 6.9 1 14 1.7 21.1 1.8 7.1 0.1 14.2-0.3 21.1-1.5 1.7-0.3 3.4-0.6 5.1-1 1.7-0.4 3.3-0.8 5-1.3 1.7-0.5 3.2-1 4.9-1.6 0.4-0.1 0.8-0.3 1.2-0.4l1.3-0.3c0.4-0.1 0.9-0.2 1.3-0.3 0.4-0.1 0.9-0.2 1.3-0.2 3.5-0.5 6.9 0.1 10.1 0.9 3.2 0.9 6.1 2 9 3 5.8 2 11.4 3.5 16.6 4.5 5.3 1 10.1 1.5 14.5 1.8 4.3 0.3 8.1 0.4 11.3 0.4 3.1 0 5.6 0 7.3-0.1 1.7 0 2.6-0.1 2.6-0.1s-0.9 0.1-2.6 0.2c-1.7 0.1-4.1 0.3-7.3 0.3 -3.1 0-6.9 0.1-11.3-0.1 -4.4-0.2-9.3-0.6-14.6-1.5 -5.3-0.9-11-2.3-16.9-4.2 -2.9-0.9-5.9-2-9-2.8 -3.1-0.7-6.3-1.2-9.5-0.8 -3.2 0.3-6.3 1.7-9.7 2.7 -1.7 0.5-3.4 1-5.1 1.4 -1.7 0.4-3.4 0.8-5.2 1.1 -7 1.3-14.2 1.8-21.4 1.6 -7.2-0.2-14.4-0.9-21.4-2 -7-1.1-13.8-2.6-20.3-4.3 -3.2-0.8-6.4-1.7-9.6-2.5 -1.5-0.4-3.1-0.7-4.6-1.1 -1.5-0.3-3.1-0.7-4.6-0.9 -6-1.1-11.8-1.7-17.1-2.1 -5.3-0.3-10.2-0.5-14.6-0.3 -4.4 0.1-8.1 0.3-11.3 0.7C16.1 460.7 12.6 461.5 12.6 461.5z"/><path opacity="0.5" clip-path="url(#SVGID_2_)" fill="#FFFFFF" d="M134.7 529.6c0 0 0.2-0.1 0.7-0.3 0.5-0.2 1.2-0.4 2.1-0.7 0.9-0.3 2-0.6 3.4-1 1.4-0.3 2.9-0.7 4.7-1 0.9-0.2 1.8-0.3 2.8-0.5 1-0.2 2-0.4 3.1-0.5 1.1-0.1 2.2-0.2 3.3-0.4 1.2-0.1 2.4-0.3 3.6-0.3 1.2-0.1 2.5-0.1 3.9-0.2 1.3-0.1 2.7-0.2 4.1-0.1 2.8 0 5.7 0.1 8.8 0.2 6.1 0.3 12.7 0.7 19.7 1 7 0.3 14.3 0.6 21.9 0.7 7.6 0.1 15.5 0.1 23.4-0.4 4-0.2 8-0.6 11.9-1.1 4-0.6 7.9-1.3 11.7-2.5 1.9-0.6 3.7-1.3 5.4-2.2 1.8-1 3.6-1.9 5.3-2.9 3.5-2 7-4 10.6-5.9 3.6-1.9 7.3-3.6 11.1-4.8 3.8-1.3 7.8-2 11.7-2.2 3.9-0.1 7.8 0.3 11.5 1.1 1.8 0.5 3.6 0.9 5.3 1.4 1.7 0.5 3.4 1 5.1 1.5 6.7 1.9 13.1 3.3 19.1 3.9 6 0.6 11.6 0.3 16.3-0.9 1.2-0.3 2.3-0.6 3.4-1 1.1-0.4 2.1-0.8 3.1-1.2 1-0.4 1.8-1 2.7-1.4 0.4-0.2 0.9-0.4 1.2-0.7 0.4-0.3 0.7-0.5 1.1-0.8 0.7-0.5 1.4-1 2-1.5 0.6-0.5 1.1-1 1.7-1.5 0.5-0.5 1-0.9 1.4-1.3 0.4-0.4 0.8-0.8 1.1-1.2 1.3-1.4 2-2.2 2-2.2s-0.6 0.8-1.8 2.3c-0.3 0.4-0.6 0.8-1 1.2 -0.4 0.4-0.9 0.9-1.4 1.4 -0.5 0.5-1 1-1.6 1.6 -0.6 0.5-1.3 1-2 1.6 -0.4 0.3-0.7 0.6-1.1 0.8 -0.4 0.3-0.8 0.5-1.2 0.8 -0.9 0.5-1.7 1.1-2.7 1.6 -1 0.4-2 0.9-3.1 1.4 -1.1 0.4-2.3 0.8-3.5 1.2 -4.8 1.4-10.6 2-16.7 1.5 -6.2-0.4-12.7-1.7-19.6-3.4 -1.7-0.4-3.4-0.9-5.2-1.4 -1.8-0.5-3.4-0.9-5.2-1.3 -3.5-0.6-7.2-1-10.9-0.8 -3.7 0.2-7.4 1-11 2.2 -3.6 1.2-7.1 2.9-10.6 4.8 -3.5 1.9-7 3.9-10.5 5.9 -1.8 1-3.6 2-5.4 2.9 -1.9 1-3.9 1.8-5.9 2.4 -4 1.3-8.1 2-12.2 2.6 -4.1 0.5-8.1 0.9-12.2 1.1 -8.1 0.4-16 0.3-23.6 0.1 -7.7-0.2-15-0.7-22-1.2 -7-0.5-13.6-1-19.7-1.5 -3-0.2-5.9-0.3-8.7-0.4 -1.4-0.1-2.7-0.1-4-0.1 -1.3 0-2.6 0-3.8 0 -1.2 0-2.4 0.1-3.6 0.2 -1.2 0.1-2.3 0.2-3.3 0.2 -1.1 0-2.1 0.2-3.1 0.3 -1 0.1-1.9 0.2-2.8 0.4 -0.9 0.1-1.7 0.3-2.5 0.4 -0.8 0.1-1.5 0.3-2.2 0.4 -1.4 0.3-2.5 0.6-3.4 0.8 -0.9 0.2-1.6 0.5-2.1 0.6C135 529.6 134.7 529.6 134.7 529.6z"/><path opacity="0.5" clip-path="url(#SVGID_2_)" fill="#FFFFFF" d="M79.6 489.4l8.2 0.9 8.2 0.8c5.5 0.5 10.9 1.1 16.4 1.5l16.4 1.2 8.2 0.6c2.7 0.2 5.5 0.5 8.2 0.5l32.8 1.5c2.7 0.1 5.5 0.2 8.2 0.3l8.2 0.2 16.4 0.4c5.5 0.1 11 0.3 16.4 0.3 5.5 0.1 11 0.2 16.4 0.2 5.5 0 11 0.1 16.4 0l8.2-0.1c2.7 0 5.5-0.1 8.2-0.2l8.2-0.3c1.4-0.1 2.7-0.1 4.1-0.2l4.1-0.3 8.2-0.6c2.7-0.2 5.4-0.6 8.2-0.9 5.4-0.6 10.9-1.4 16.2-2.7 2.7-0.6 5.3-1.3 7.8-2.5 0.6-0.3 1.2-0.6 1.8-1 0.6-0.4 1.1-0.8 1.4-1.4 0.2-0.3 0.3-0.6 0.3-0.9 0-0.3-0.1-0.6-0.3-0.9 -0.3-0.6-0.9-1-1.5-1.3l0 0 0 0c-0.5-0.3-0.9-0.9-0.8-1.6 0.2-0.6 0.8-1 1.3-1.2 0.5-0.3 1.1-0.5 1.7-0.6 0.6-0.2 1.1-0.3 1.7-0.4 1.2-0.2 2.3-0.4 3.5-0.5l3.5-0.4 7-0.8c2.3-0.3 4.7-0.5 7-0.7 -2.3 0.3-4.7 0.5-7 0.7l-7 0.9 -3.5 0.4c-1.2 0.1-2.3 0.3-3.5 0.5 -0.6 0.1-1.1 0.2-1.7 0.4 -0.6 0.2-1.1 0.3-1.6 0.6 -0.5 0.2-1 0.6-1.2 1.1 -0.1 0.5 0.3 1.1 0.7 1.4l0 0c0.6 0.3 1.2 0.8 1.6 1.4 0.2 0.3 0.3 0.7 0.3 1 0 0.4-0.1 0.7-0.3 1 -0.4 0.6-0.9 1.1-1.5 1.4 -0.6 0.4-1.2 0.7-1.8 1 -2.5 1.1-5.2 1.9-7.8 2.5 -5.3 1.3-10.8 2.1-16.2 2.7 -2.7 0.3-5.4 0.7-8.2 0.9l-8.2 0.6 -4.1 0.3c-1.4 0.1-2.7 0.1-4.1 0.2l-8.2 0.3c-2.7 0.1-5.5 0.2-8.2 0.2l-8.2 0.1c-5.5 0.1-11 0-16.4 0 -5.5 0-11-0.1-16.4-0.2 -5.5-0.1-11-0.2-16.4-0.4l-16.4-0.4 -8.2-0.2c-2.7-0.1-5.5-0.2-8.2-0.3l-32.9-1.5c-2.7-0.1-5.5-0.4-8.2-0.6l-8.2-0.6 -16.4-1.3c-5.5-0.5-10.9-1.1-16.4-1.6l-8.2-0.8L79.6 489.4z"/><defs><filter id="Adobe_OpacityMaskFilter_4_" filterUnits="userSpaceOnUse" x="128.8" y="395.7" width="207.1" height="57.5"><feColorMatrix type="matrix" values="1 0 0 0 0  0 1 0 0 0  0 0 1 0 0  0 0 0 1 0"/></filter></defs><mask maskUnits="userSpaceOnUse" x="128.8" y="395.7" width="207.1" height="57.5" id="SVGID_18_"><g filter="url(#Adobe_OpacityMaskFilter_4_)"><defs><filter id="Adobe_OpacityMaskFilter_5_" filterUnits="userSpaceOnUse" x="128.8" y="395.7" width="207.1" height="57.5"><feFlood result="back" style="flood-color:white;flood-opacity:1"/><feBlend in="SourceGraphic" in2="back" mode="normal"/></filter></defs><mask maskUnits="userSpaceOnUse" x="128.8" y="395.7" width="207.1" height="57.5" id="SVGID_18_"><g filter="url(#Adobe_OpacityMaskFilter_5_)"/></mask><radialGradient id="SVGID_19_" cx="241.2056" cy="394.5542" r="113.891" gradientUnits="userSpaceOnUse"><stop offset="0" stop-color="#FFFFFF"/><stop offset="1" stop-color="#000000"/></radialGradient><path clip-path="url(#SVGID_2_)" mask="url(#SVGID_18_)" fill="url(#SVGID_19_)" d="M304.2 396c-47.6 0.2-97.1-0.4-144.7-0.3 -7.3 2.3-13.6 5.1-18.6 8.1 -26.8 16.4-7.8 36.7 42.5 45.4 50.3 8.7 112.8 2.5 139.6-13.8C345.6 421.7 337.7 406.1 304.2 396z"/></g></mask><g clip-path="url(#SVGID_2_)" opacity="0.1"><defs><filter id="Adobe_OpacityMaskFilter_6_" filterUnits="userSpaceOnUse" x="128.8" y="395.7" width="207.1" height="57.5"><feFlood result="back" style="flood-color:white;flood-opacity:1"/><feBlend in="SourceGraphic" in2="back" mode="normal"/></filter></defs><mask maskUnits="userSpaceOnUse" x="128.8" y="395.7" width="207.1" height="57.5" id="SVGID_20_"><g filter="url(#Adobe_OpacityMaskFilter_6_)"><defs><filter id="Adobe_OpacityMaskFilter_7_" filterUnits="userSpaceOnUse" x="128.8" y="395.7" width="207.1" height="57.5"><feFlood result="back" style="flood-color:white;flood-opacity:1"/><feBlend in="SourceGraphic" in2="back" mode="normal"/></filter></defs><mask maskUnits="userSpaceOnUse" x="128.8" y="395.7" width="207.1" height="57.5" id="SVGID_20_"><g filter="url(#Adobe_OpacityMaskFilter_7_)"/></mask><radialGradient id="SVGID_21_" cx="241.2056" cy="394.5542" r="113.891" gradientUnits="userSpaceOnUse"><stop offset="0" stop-color="#FFFFFF"/><stop offset="1" stop-color="#000000"/></radialGradient><path mask="url(#SVGID_20_)" fill="url(#SVGID_21_)" d="M304.2 396c-47.6 0.2-97.1-0.4-144.7-0.3 -7.3 2.3-13.6 5.1-18.6 8.1 -26.8 16.4-7.8 36.7 42.5 45.4 50.3 8.7 112.8 2.5 139.6-13.8C345.6 421.7 337.7 406.1 304.2 396z"/></g></mask><radialGradient id="SVGID_22_" cx="241.2056" cy="394.5542" r="113.891" gradientUnits="userSpaceOnUse"><stop offset="0" stop-color="#FFFFFF"/><stop offset="1" stop-color="#CFE0F3"/></radialGradient><path opacity="0.7" fill-opacity="0.5" fill="url(#SVGID_22_)" d="M304.2 396c-47.6 0.2-97.1-0.4-144.7-0.3 -7.3 2.3-13.6 5.1-18.6 8.1 -26.8 16.4-7.8 36.7 42.5 45.4 50.3 8.7 112.8 2.5 139.6-13.8C345.6 421.7 337.7 406.1 304.2 396z"/></g><g opacity="0.5" clip-path="url(#SVGID_2_)"><g><defs><filter id="Adobe_OpacityMaskFilter_8_" filterUnits="userSpaceOnUse" x="119.6" y="414.5" width="73.5" height="13.5"><feFlood result="back" style="flood-color:white;flood-opacity:1"/><feBlend in="SourceGraphic" in2="back" mode="normal"/></filter></defs><mask maskUnits="userSpaceOnUse" x="119.6" y="414.5" width="73.5" height="13.5" id="SVGID_23_"><g filter="url(#Adobe_OpacityMaskFilter_8_)"><defs><filter id="Adobe_OpacityMaskFilter_9_" filterUnits="userSpaceOnUse" x="119.6" y="414.5" width="73.5" height="13.5"><feFlood result="back" style="flood-color:white;flood-opacity:1"/><feBlend in="SourceGraphic" in2="back" mode="normal"/></filter></defs><mask maskUnits="userSpaceOnUse" x="119.6" y="414.5" width="73.5" height="13.5" id="SVGID_23_"><g filter="url(#Adobe_OpacityMaskFilter_9_)"/></mask><linearGradient id="SVGID_24_" gradientUnits="userSpaceOnUse" x1="119.5818" y1="421.2788" x2="193.0603" y2="421.2788"><stop offset="1.956910e-03" stop-color="#FFFFFF"/><stop offset="1" stop-color="#808080"/></linearGradient><path mask="url(#SVGID_23_)" fill="url(#SVGID_24_)" d="M158.3 414.6c12.3 0.2 30.8 1.3 18.2 3.7 -12.7 2.3-6.7 3.7 5.8 4.4s16.2 3.4 0 4.9 -82.8-1-56.7-2.8 30-4 16.8-4.3c-13.2-0.3-5.2-3 6.3-2.7 11.5 0.3 15.3-0.5 4.3-1.5S149.9 414.4 158.3 414.6z"/></g></mask><linearGradient id="SVGID_25_" gradientUnits="userSpaceOnUse" x1="119.5818" y1="421.2788" x2="193.0603" y2="421.2788"><stop offset="1.956910e-03" stop-color="#37425B"/><stop offset="1" stop-color="#FFFFFF"/></linearGradient><path fill="url(#SVGID_25_)" d="M158.3 414.6c12.3 0.2 30.8 1.3 18.2 3.7 -12.7 2.3-6.7 3.7 5.8 4.4s16.2 3.4 0 4.9 -82.8-1-56.7-2.8 30-4 16.8-4.3c-13.2-0.3-5.2-3 6.3-2.7 11.5 0.3 15.3-0.5 4.3-1.5S149.9 414.4 158.3 414.6z"/><path opacity="0.8" fill="#FFFFFF" d="M221.4 423.6c12.5-0.2 28 2 15.8 3.2 -12.2 1.2-10.3 3.7 2.5 4 12.8 0.3 32.2 5.3 11 6 -21.2 0.7-82-0.7-52.3-3.2 29.7-2.5-4.7-5.1 8.5-5.5 13.2-0.5-6-2.5 6.2-3C225.3 424.6 207.9 423.7 221.4 423.6z"/><defs><filter id="Adobe_OpacityMaskFilter_10_" filterUnits="userSpaceOnUse" x="304.2" y="416.7" width="50.1" height="11.4"><feFlood result="back" style="flood-color:white;flood-opacity:1"/><feBlend in="SourceGraphic" in2="back" mode="normal"/></filter></defs><mask maskUnits="userSpaceOnUse" x="304.2" y="416.7" width="50.1" height="11.4" id="SVGID_26_"><g filter="url(#Adobe_OpacityMaskFilter_10_)"><defs><filter id="Adobe_OpacityMaskFilter_11_" filterUnits="userSpaceOnUse" x="304.2" y="416.7" width="50.1" height="11.4"><feFlood result="back" style="flood-color:white;flood-opacity:1"/><feBlend in="SourceGraphic" in2="back" mode="normal"/></filter></defs><mask maskUnits="userSpaceOnUse" x="304.2" y="416.7" width="50.1" height="11.4" id="SVGID_26_"><g filter="url(#Adobe_OpacityMaskFilter_11_)"/></mask><linearGradient id="SVGID_27_" gradientUnits="userSpaceOnUse" x1="304.2305" y1="422.3634" x2="354.3589" y2="422.3634"><stop offset="0" stop-color="#808080"/><stop offset="0.154" stop-color="#858585"/><stop offset="0.3385" stop-color="#939393"/><stop offset="0.5389" stop-color="#ABABAB"/><stop offset="0.7504" stop-color="#CDCDCD"/><stop offset="0.9687" stop-color="#F8F8F8"/><stop offset="1" stop-color="#FFFFFF"/></linearGradient><path mask="url(#SVGID_26_)" fill="url(#SVGID_27_)" d="M329.9 416.7c13.2-0.4 34.2 1.8 19.3 3.7 -14.8 1.8-27 3-8.7 3.2 18.3 0.2 14 4.1-9.9 4.5s-35.3-2-18.6-3c16.7-1-6-2.9 11.3-3.8C340.8 420.4 275.8 418.4 329.9 416.7z"/></g></mask><linearGradient id="SVGID_28_" gradientUnits="userSpaceOnUse" x1="304.2305" y1="422.3634" x2="354.3589" y2="422.3634"><stop offset="0" stop-color="#FFFFFF"/><stop offset="0.1186" stop-color="#FAFAFB"/><stop offset="0.2609" stop-color="#EBECEF"/><stop offset="0.4154" stop-color="#D3D5DB"/><stop offset="0.5785" stop-color="#B1B5BF"/><stop offset="0.7486" stop-color="#868C9B"/><stop offset="0.9217" stop-color="#515B71"/><stop offset="1" stop-color="#37425B"/></linearGradient><path fill="url(#SVGID_28_)" d="M329.9 416.7c13.2-0.4 34.2 1.8 19.3 3.7 -14.8 1.8-27 3-8.7 3.2 18.3 0.2 14 4.1-9.9 4.5s-35.3-2-18.6-3c16.7-1-6-2.9 11.3-3.8C340.8 420.4 275.8 418.4 329.9 416.7z"/><defs><filter id="Adobe_OpacityMaskFilter_12_" filterUnits="userSpaceOnUse" x="152.9" y="438.5" width="57.3" height="12.1"><feFlood result="back" style="flood-color:white;flood-opacity:1"/><feBlend in="SourceGraphic" in2="back" mode="normal"/></filter></defs><mask maskUnits="userSpaceOnUse" x="152.9" y="438.5" width="57.3" height="12.1" id="SVGID_29_"><g filter="url(#Adobe_OpacityMaskFilter_12_)"><defs><filter id="Adobe_OpacityMaskFilter_13_" filterUnits="userSpaceOnUse" x="152.9" y="438.5" width="57.3" height="12.1"><feFlood result="back" style="flood-color:white;flood-opacity:1"/><feBlend in="SourceGraphic" in2="back" mode="normal"/></filter></defs><mask maskUnits="userSpaceOnUse" x="152.9" y="438.5" width="57.3" height="12.1" id="SVGID_29_"><g filter="url(#Adobe_OpacityMaskFilter_13_)"/></mask><linearGradient id="SVGID_30_" gradientUnits="userSpaceOnUse" x1="152.927" y1="444.5727" x2="210.2263" y2="444.5727"><stop offset="1.956910e-03" stop-color="#FFFFFF"/><stop offset="1" stop-color="#333333"/></linearGradient><path mask="url(#SVGID_29_)" fill="url(#SVGID_30_)" d="M179.8 438.6c20.7-0.9 43.2 3.2 21.5 5.2s9.2 5.5-10.9 6.5c-20.1 1-54.6-1.2-27.6-2.5s-9.5-6.4 10.2-6.1C192.8 442.1 162.8 439.4 179.8 438.6z"/></g></mask><linearGradient id="SVGID_31_" gradientUnits="userSpaceOnUse" x1="152.927" y1="444.5727" x2="210.2263" y2="444.5727"><stop offset="1.956910e-03" stop-color="#37425B"/><stop offset="1" stop-color="#FFFFFF"/></linearGradient><path fill="url(#SVGID_31_)" d="M179.8 438.6c20.7-0.9 43.2 3.2 21.5 5.2s9.2 5.5-10.9 6.5c-20.1 1-54.6-1.2-27.6-2.5s-9.5-6.4 10.2-6.1C192.8 442.1 162.8 439.4 179.8 438.6z"/><defs><filter id="Adobe_OpacityMaskFilter_14_" filterUnits="userSpaceOnUse" x="302.4" y="435.3" width="51.2" height="14.3"><feFlood result="back" style="flood-color:white;flood-opacity:1"/><feBlend in="SourceGraphic" in2="back" mode="normal"/></filter></defs><mask maskUnits="userSpaceOnUse" x="302.4" y="435.3" width="51.2" height="14.3" id="SVGID_32_"><g filter="url(#Adobe_OpacityMaskFilter_14_)"><defs><filter id="Adobe_OpacityMaskFilter_15_" filterUnits="userSpaceOnUse" x="302.4" y="435.3" width="51.2" height="14.3"><feFlood result="back" style="flood-color:white;flood-opacity:1"/><feBlend in="SourceGraphic" in2="back" mode="normal"/></filter></defs><mask maskUnits="userSpaceOnUse" x="302.4" y="435.3" width="51.2" height="14.3" id="SVGID_32_"><g filter="url(#Adobe_OpacityMaskFilter_15_)"/></mask><linearGradient id="SVGID_33_" gradientUnits="userSpaceOnUse" x1="302.4443" y1="442.4075" x2="353.6768" y2="442.4075"><stop offset="0" stop-color="#333333"/><stop offset="0.1172" stop-color="#383838"/><stop offset="0.258" stop-color="#474747"/><stop offset="0.4107" stop-color="#5F5F5F"/><stop offset="0.572" stop-color="#818181"/><stop offset="0.7401" stop-color="#ACACAC"/><stop offset="0.9113" stop-color="#E1E1E1"/><stop offset="1" stop-color="#FFFFFF"/></linearGradient><path mask="url(#SVGID_32_)" fill="url(#SVGID_33_)" d="M320.7 435.4c15.6-0.8 35.6 2.8 13.6 4.6 -22 1.9-10 3.4 3.3 3.6 13.2 0.2 28.2 3.3 0.7 5.2 -27.5 1.9-48.7-0.3-26.5-1.7 22.2-1.4-13.3-4.6 6.4-6C337.7 439.7 288 437.1 320.7 435.4z"/></g></mask><linearGradient id="SVGID_34_" gradientUnits="userSpaceOnUse" x1="302.4443" y1="442.4075" x2="353.6768" y2="442.4075"><stop offset="0" stop-color="#FFFFFF"/><stop offset="0.1186" stop-color="#FAFAFB"/><stop offset="0.2609" stop-color="#EBECEF"/><stop offset="0.4154" stop-color="#D3D5DB"/><stop offset="0.5785" stop-color="#B1B5BF"/><stop offset="0.7486" stop-color="#868C9B"/><stop offset="0.9217" stop-color="#515B71"/><stop offset="1" stop-color="#37425B"/></linearGradient><path opacity="0.7" fill="url(#SVGID_34_)" d="M320.7 435.4c15.6-0.8 35.6 2.8 13.6 4.6 -22 1.9-10 3.4 3.3 3.6 13.2 0.2 28.2 3.3 0.7 5.2 -27.5 1.9-48.7-0.3-26.5-1.7 22.2-1.4-13.3-4.6 6.4-6C337.7 439.7 288 437.1 320.7 435.4z"/><ellipse opacity="0.7" fill="#FFFFFF" cx="134" cy="410.2" rx="13.1" ry="1.2"/><ellipse opacity="0.7" fill="#FFFFFF" cx="99.3" cy="439.4" rx="10.8" ry="0.9"/><ellipse opacity="0.7" fill="#FFFFFF" cx="129.6" cy="445.7" rx="5.2" ry="1.2"/><ellipse opacity="0.7" fill="#FFFFFF" cx="247.4" cy="447.6" rx="10.8" ry="1.9"/><ellipse opacity="0.5" fill="#FFFFFF" cx="276.1" cy="434.3" rx="6.7" ry="1"/><ellipse opacity="0.7" fill="#FFFFFF" cx="270.7" cy="445.7" rx="6.3" ry="1.2"/><ellipse opacity="0.5" fill="#FFFFFF" cx="313" cy="431.8" rx="10.6" ry="1.6"/><ellipse opacity="0.8" fill="#FFFFFF" cx="124.4" cy="402.4" rx="5.1" ry="0.9"/><ellipse opacity="0.8" fill="#FFFFFF" cx="111.8" cy="404.5" rx="6.3" ry="1.3"/><ellipse opacity="0.7" fill="#FFFFFF" cx="230" cy="455.7" rx="4.6" ry="1.2"/></g><linearGradient id="SVGID_35_" gradientUnits="userSpaceOnUse" x1="125.4497" y1="408.6856" x2="356.2122" y2="408.6856"><stop offset="1.956910e-03" stop-color="#37425B"/><stop offset="3.355656e-03" stop-color="#38435C"/><stop offset="8.349028e-02" stop-color="#747C8D"/><stop offset="0.1606" stop-color="#A6ABB6"/><stop offset="0.2328" stop-color="#CCCFD5"/><stop offset="0.2989" stop-color="#E8E9EC"/><stop offset="0.3569" stop-color="#F9F9FA"/><stop offset="0.4004" stop-color="#FFFFFF"/><stop offset="0.5727" stop-color="#FDFDFD"/><stop offset="0.661" stop-color="#F5F6F7"/><stop offset="0.7301" stop-color="#E8E9EC"/><stop offset="0.7894" stop-color="#D5D7DC"/><stop offset="0.8424" stop-color="#BCC0C8"/><stop offset="0.8908" stop-color="#9EA3AF"/><stop offset="0.9359" stop-color="#7A8192"/><stop offset="0.977" stop-color="#515B70"/><stop offset="1" stop-color="#37425B"/></linearGradient><path fill="url(#SVGID_35_)" d="M142.5 401.4c20.2 0.5 32 1.9 17.4 4.2 -14.6 2.3-17.1 6 6.5 6.7 23.6 0.7 31.3 3.2 20.1 5.3 -11.1 2.1-3.2 3.2 16.7 2.1 19.9-1.2 29.3-2.5 8.3-3.7 -20.9-1.2-17.8-3.2 0.5-4.2 18.3-0.9 43.1-5.3 20.4-6.9 -22.7-1.6-0.2-2.3 16.4-2.3 16.7 0 44.7-2.1 25.9 2.5 -18.8 4.6 19.9 5.1 0.5 6.7 -19.5 1.6-58.4 9-38.2 10.2s83.8 0.9 64.6-3.5c-19.2-4.4 0.5-4.6 15.1-4.9s41.4-4.4 14.1-6.7 -37.4-6.9-4.8-8.1c22.3-0.8 21.4-1.6 13.5-3.2 -64.7-0.6-137.6-1.6-202.1-0.3C119.3 395.9 122.4 401 142.5 401.4z"/></g><defs><filter id="Adobe_OpacityMaskFilter_16_" filterUnits="userSpaceOnUse" x="127" y="395.2" width="206.2" height="56.3"><feColorMatrix type="matrix" values="1 0 0 0 0  0 1 0 0 0  0 0 1 0 0  0 0 0 1 0"/></filter></defs><mask maskUnits="userSpaceOnUse" x="127" y="395.2" width="206.2" height="56.3" id="SVGID_36_"><g filter="url(#Adobe_OpacityMaskFilter_16_)"><defs><filter id="Adobe_OpacityMaskFilter_17_" filterUnits="userSpaceOnUse" x="127" y="395.2" width="206.2" height="56.3"><feFlood result="back" style="flood-color:white;flood-opacity:1"/><feBlend in="SourceGraphic" in2="back" mode="normal"/></filter></defs><mask maskUnits="userSpaceOnUse" x="127" y="395.2" width="206.2" height="56.3" id="SVGID_36_"><g filter="url(#Adobe_OpacityMaskFilter_17_)"/></mask><radialGradient id="SVGID_37_" cx="238.9651" cy="394.1303" r="112.8772" gradientUnits="userSpaceOnUse"><stop offset="0" stop-color="#FFFFFF"/><stop offset="1" stop-color="#000000"/></radialGradient><path clip-path="url(#SVGID_2_)" mask="url(#SVGID_36_)" fill="url(#SVGID_37_)" d="M165.5 447.9c19.1 2.3 25.8 4.3 66.2 3.5 40.3-0.8 98.1-14 67.6-14.5s-19.4-5.1 3.2-6.1c22.6-0.9 44.3-7.7 20.3-9.9 -24-2.2-15.2-5.3-1-6.3 14.2-1 12.3-7.3-10-8.7 -22.3-1.4-41.3-4.7-14.5-5.8 26.8-1.1 5.9-4.7-21.2-4 -27 0.7-86-0.8-97.2-0.8 -11.2 0-53.7 6.6-3.8 8.4 49.8 1.9-64.9 4.5-38.7 6.5 26.2 2 37.1 6.4 10.7 7.5 -26.4 1.2-26.6 6-1.6 5.9s-21.8 2.6-5.2 4.5c53.8 6.2-28.1 11.1 21.1 13.7C183.5 442.9 145.4 445.4 165.5 447.9z"/></g></mask><radialGradient id="SVGID_38_" cx="238.9651" cy="394.1303" r="112.8772" gradientUnits="userSpaceOnUse"><stop offset="0" stop-color="#FFFFFF"/><stop offset="1" stop-color="#CFE0F3"/></radialGradient><path opacity="0.5" clip-path="url(#SVGID_2_)" fill="url(#SVGID_38_)" d="M165.5 447.9c19.1 2.3 25.8 4.3 66.2 3.5 40.3-0.8 98.1-14 67.6-14.5s-19.4-5.1 3.2-6.1c22.6-0.9 44.3-7.7 20.3-9.9 -24-2.2-15.2-5.3-1-6.3 14.2-1 12.3-7.3-10-8.7 -22.3-1.4-41.3-4.7-14.5-5.8 26.8-1.1 5.9-4.7-21.2-4 -27 0.7-86-0.8-97.2-0.8 -11.2 0-53.7 6.6-3.8 8.4 49.8 1.9-64.9 4.5-38.7 6.5 26.2 2 37.1 6.4 10.7 7.5 -26.4 1.2-26.6 6-1.6 5.9s-21.8 2.6-5.2 4.5c53.8 6.2-28.1 11.1 21.1 13.7C183.5 442.9 145.4 445.4 165.5 447.9z" fill-opacity="0.4"/><g clip-path="url(#SVGID_2_)"><rect x="22.5" y="300.8" transform="matrix(-2.153628e-02 -0.9998 0.9998 -2.153628e-02 -272.5966 336.8627)" fill="#370000" width="12.1" height="2.1"/><rect x="15.8" y="300.9" transform="matrix(-2.153795e-02 -0.9998 0.9998 -2.153795e-02 -279.603 330.2962)" fill="#370000" width="12.1" height="2.1"/><rect x="29.5" y="300.6" transform="matrix(-2.161184e-02 -0.9998 0.9998 -2.161184e-02 -265.2937 343.7288)" fill="#370000" width="12.1" height="2.1"/><path fill="#290000" d="M39.1 305.6L19.8 306c2.9 0.5 6.1 0.8 9.7 0.8C33 306.7 36.3 306.3 39.1 305.6z"/><rect x="12.8" y="300.1" transform="matrix(-2.162090e-02 -0.9998 0.9998 -2.162090e-02 -281.7486 326.35)" fill="#510000" width="12.1" height="1.8"/><defs><filter id="Adobe_OpacityMaskFilter_18_" filterUnits="userSpaceOnUse" x="17.6" y="288.7" width="22.8" height="22.8"><feColorMatrix type="matrix" values="1 0 0 0 0  0 1 0 0 0  0 0 1 0 0  0 0 0 1 0"/></filter></defs><mask maskUnits="userSpaceOnUse" x="17.6" y="288.7" width="22.8" height="22.8" id="SVGID_39_"><g filter="url(#Adobe_OpacityMaskFilter_18_)"><defs><filter id="Adobe_OpacityMaskFilter_19_" filterUnits="userSpaceOnUse" x="17.6" y="288.7" width="22.8" height="22.8"><feFlood result="back" style="flood-color:white;flood-opacity:1"/><feBlend in="SourceGraphic" in2="back" mode="normal"/></filter></defs><mask maskUnits="userSpaceOnUse" x="17.6" y="288.7" width="22.8" height="22.8" id="SVGID_39_"><g filter="url(#Adobe_OpacityMaskFilter_19_)"/></mask><radialGradient id="SVGID_40_" cx="29.0513" cy="300.0884" r="11.4077" gradientUnits="userSpaceOnUse"><stop offset="0.3444" stop-color="#FFFFFF"/><stop offset="0.399" stop-color="#F8F8F8"/><stop offset="0.4793" stop-color="#E4E4E4"/><stop offset="0.5756" stop-color="#C4C4C4"/><stop offset="0.6841" stop-color="#969696"/><stop offset="0.8029" stop-color="#5C5C5C"/><stop offset="0.9285" stop-color="#171717"/><stop offset="0.9673" stop-color="#000000"/></radialGradient><circle mask="url(#SVGID_39_)" fill="url(#SVGID_40_)" cx="29.1" cy="300.1" r="11.4"/></g></mask><radialGradient id="SVGID_41_" cx="29.0513" cy="300.0884" r="11.4077" gradientUnits="userSpaceOnUse"><stop offset="0.3444" stop-color="#F8971D"/><stop offset="0.4544" stop-color="#F99E1B"/><stop offset="0.616" stop-color="#FAB214"/><stop offset="0.8084" stop-color="#FDD20A"/><stop offset="0.9673" stop-color="#FFF200"/></radialGradient><circle fill="url(#SVGID_41_)" fill-opacity="0.3" cx="29.1" cy="300.1" r="11.4"/><linearGradient id="SVGID_42_" gradientUnits="userSpaceOnUse" x1="29.1768" y1="295.0454" x2="29.1768" y2="304.8157"><stop offset="0.3765" stop-color="#EF4623"/><stop offset="0.4543" stop-color="#EF4B22"/><stop offset="0.5457" stop-color="#F1591F"/><stop offset="0.6439" stop-color="#F3711A"/><stop offset="0.747" stop-color="#F69214"/><stop offset="0.8538" stop-color="#FABC0B"/><stop offset="0.9623" stop-color="#FFEF01"/><stop offset="0.9673" stop-color="#FFF200"/></linearGradient><circle fill="url(#SVGID_42_)" cx="29.2" cy="302.5" r="5.4"/><rect x="18.9" y="300.9" transform="matrix(-2.153795e-02 -0.9998 0.9998 -2.153795e-02 -276.4095 333.2906)" fill="#510000" width="12.1" height="2.1"/><rect x="37.6" y="294.1" transform="matrix(0.9998 -2.176454e-02 2.176454e-02 0.9998 -6.5221 0.9116)" fill="#510000" width="2.1" height="12.1"/><rect x="25.9" y="300.7" transform="matrix(-2.152972e-02 -0.9998 0.9998 -2.152972e-02 -269.1093 340.1304)" fill="#510000" width="12.1" height="2.1"/><linearGradient id="SVGID_43_" gradientUnits="userSpaceOnUse" x1="14.2774" y1="288.5069" x2="42.7764" y2="288.5069"><stop offset="0" stop-color="#696D6D"/><stop offset="1" stop-color="#989091"/></linearGradient><path fill="url(#SVGID_43_)" d="M27.3 277.5c-3.6 0.1-13.1 21-13.1 21 0 0.7 6.4 1.1 14.3 0.9 7.9-0.2 14.2-0.9 14.2-1.6C42.8 297.9 30.9 277.4 27.3 277.5z"/><path fill="#000" d="M27.4 277.5c-3.6 0.1-13.1 21-13.1 21 0 0.6 4.5 1 10.6 1V298L27.4 277.5z" fill-opacity="0.2"/><path fill="#000" d="M27.4 277.5c-3.6 0.1-13.1 21-13.1 21 0 0.7 6.4 1.1 14.3 1 2.1 0 4-0.1 5.8-0.2C31.9 291.2 28.7 280.5 27.4 277.5 27.4 277.5 27.4 277.5 27.4 277.5z" fill-opacity="0.2"/><path opacity="0.4" fill="#FFFFFF" d="M29.5 278.8c1.4 1.4 2.6 2.9 3.9 4.4 0.6 0.7 1.2 1.5 1.8 2.3l1.7 2.4c0.6 0.8 1.2 1.6 1.7 2.4l1.5 2.5c1 1.7 2 3.3 3 5l0.2 0.3 -0.3 0.2c-0.1 0.1-0.2 0.1-0.4 0.2 -0.1 0-0.2 0.1-0.3 0.1l-0.5 0.1c-0.2 0-0.4 0.1-0.5 0.1l-0.5 0.1 -1.1 0.1c-0.4 0-0.7 0.1-1.1 0.1 -1.4 0.1-2.9 0.1-4.3 0.1 1.4-0.3 2.8-0.4 4.2-0.7 0.4 0 0.7-0.1 1-0.2l1-0.2 0.5-0.1c0.2 0 0.3-0.1 0.5-0.1l0.5-0.2c0.1 0 0.2-0.1 0.2-0.1 0 0 0.1 0 0.1-0.1l-0.1 0.5c-1.1-1.6-2.1-3.3-3.1-4.9l-1.5-2.5c-0.5-0.8-1.1-1.6-1.6-2.4l-1.6-2.4c-0.5-0.8-1-1.6-1.6-2.4 -0.6-0.8-1.1-1.6-1.7-2.4 -0.3-0.4-0.5-0.8-0.8-1.2L29.5 278.8z"/><path opacity="0.2" fill="#94928E" d="M5.9 413.9c4.9-1.3 8.6-3.9 13.7-0.5 5.2 3.4 15-4.8 24.1-0.7 9.1 4 0 0.2 0 0.2s5.5 1.2 7.2-1.9c1.7-3.1 28.9 1.6 12.9 1.8 -16 0.2 16.5 5.1 2.9 6.5 -13.6 1.4-33.8 4.8-2.7 5.9 31.1 1-52.8 8.6-22.8 9.4 30 0.8 51.6 3.8 19.3 5.3 -32.3 1.5-83.7 0.4-46.1-1.7 37.6-2.1-27.3-5.6 6.2-7 33.5-1.4-7.6-4 5.5-5.2 13.1-1.2-42.1-2.8-19.5-5C29.1 418.7-7.7 417.6 5.9 413.9z"/><g opacity="0.5"><linearGradient id="SVGID_44_" gradientUnits="userSpaceOnUse" x1="34.7619" y1="411.2453" x2="34.7619" y2="429.8896"><stop offset="0.1555" stop-color="#2E0000"/><stop offset="0.2102" stop-color="#4A1C00"/><stop offset="0.315" stop-color="#7A4D00"/><stop offset="0.4227" stop-color="#A37600"/><stop offset="0.5318" stop-color="#C49800"/><stop offset="0.6426" stop-color="#DEB200"/><stop offset="0.7558" stop-color="#F0C500"/><stop offset="0.8729" stop-color="#FBD000"/><stop offset="1" stop-color="#FFD400"/></linearGradient><path opacity="0.5" fill="url(#SVGID_44_)" d="M39.6 410.9c16.2-0.9 38.3-0.8 20 1.8 -18.3 2.5-31.1 3.4-7.2 3 23.8-0.3 15.1 3.4-7.1 3.7 -22.3 0.3 17.7 2.1-5.7 4.1 -23.4 2-50.9 1.1-23.8-2.3 27.1-3.4-21.9-2.9 0.4-4.4 22.4-1.6-29.8 0.2-7.8-2.5 22.1-2.8-2.5-4 6.9-3.7C24.7 411 39.6 410.9 39.6 410.9z"/><path opacity="0.3" fill="#CFCAC3" d="M4.6 426.9c11.6-0.9 75.6-1.9 49.8 0.4 -25.7 2.2-37.9 2.7-12.8 3.5 25.1 0.9 19 2.7 0.5 2.7s-42.8-0.1-23.5-1.5c19.3-1.4-15-2.4 3-3C39.7 428.4-9 427.9 4.6 426.9z"/><linearGradient id="SVGID_45_" gradientUnits="userSpaceOnUse" x1="28.8227" y1="428.0193" x2="28.8227" y2="445.0307"><stop offset="0.1555" stop-color="#AB0F14"/><stop offset="0.17" stop-color="#AD1316"/><stop offset="0.4641" stop-color="#CE5745"/><stop offset="0.7102" stop-color="#E68966"/><stop offset="0.896" stop-color="#F4A77B"/><stop offset="1" stop-color="#FAB383"/></linearGradient><path opacity="0.5" fill="url(#SVGID_45_)" d="M8.4 435.1c17.4-0.9 54.3-1 41.7 1.4 -12.7 2.3-37.9 2.7-19.5 3.9 18.4 1.2-43.3 0.3-13.4-1.9C47 436.4-8.9 436 8.4 435.1z"/></g><g><path fill="#510000" d="M12.3 391.6L11 412.1c1.9-0.8 5.3-2.1 6.2-1.3 1.4 1.1 4.1 2.4 9.3 0.6 5.3-1.8 11.8 0.2 14.9 0.5 2.8 0.2 7.1-2 9.6-3.4L49.3 392l-0.3-2.4H12.5L12.3 391.6z"/><linearGradient id="SVGID_46_" gradientUnits="userSpaceOnUse" x1="12.457" y1="377.7598" x2="48.9922" y2="377.7598"><stop offset="0" stop-color="#696D6D"/><stop offset="1" stop-color="#989091"/></linearGradient><polygon fill="url(#SVGID_46_)" points="13.3 377 12.5 389.6 49 389.6 47.6 377 46.4 365.9 14 365.9 "/><polygon fill="#510000" points="15.3 346.6 14.3 361.9 14 365.9 46.4 365.9 45.9 361.8 44.2 346.4 43.8 342.2 15.6 342.2 "/><linearGradient id="SVGID_47_" gradientUnits="userSpaceOnUse" x1="15.6104" y1="330.3106" x2="43.7735" y2="330.3106"><stop offset="0" stop-color="#696D6D"/><stop offset="1" stop-color="#989091"/></linearGradient><polygon fill="url(#SVGID_47_)" points="41.2 318.4 17.2 318.4 16.3 331.2 15.6 342.2 43.8 342.2 42.5 331 "/><path fill="#510000" d="M40.8 315.4l-1.1-9.8 -0.7 0c-2.8 0.7-6.1 1.1-9.6 1.2 -3.5 0.1-6.8-0.2-9.7-0.8l-1.8 0 -0.6 9.5 -0.2 2.8h24L40.8 315.4z"/></g><path opacity="0.7" fill="#2F0000" d="M11.4 406.1c0 0 3.1-5.2 5.7-0.9 2.6 4.2 0.9-2.8 4 1.3 3.1 4.1 3.8-4.2 10.4 1.1 6.5 5.3 19.2-3 19.2-3l0.3 2.3 -2.9 5.2c0 0-8.3 0.5-8.6 0.5 -0.3 0.1-9.6-0.5-10.5-0.4 -0.9 0.1-7.3 0-7.3 0l-7.3-1.4H11L11.4 406.1z"/><path fill="#000" d="M19.9 306l-1.8 0 -0.6 9.5 -1 15.5 -1 15.5 -1 15.3 -1 15.1 -1 14.6L11 412.1c1.9-0.8 5.3-2.1 6.2-1.3 1.2 1 0 2.5 4.2 1.5l3.5-105.6C23.1 306.6 21.4 306.3 19.9 306z" fill-opacity="0.3"/><path xmlns="http://www.w3.org/2000/svg" fill="#000" d="M29.5 306.8c-3.5 0.1-6.8-0.2-9.7-0.8l-1.8 0 -0.6 9.5 -0.2 2.8 -0.8 12.7 -0.7 11 -0.3 4.4 -1 15.3 -0.3 4L13.3 377l-0.8 12.6 -0.1 2L11 412.1c1.9-0.8 5.3-2.1 6.2-1.3 1.4 1.1 4.1 2.4 9.3 0.6 2.5-0.9 12.1 0.9 14.6 1.2l-6.8-106.1C32.8 306.6 31.2 306.8 29.5 306.8z" fill-opacity="0.2"/><linearGradient id="SVGID_48_" gradientUnits="userSpaceOnUse" x1="4.5879" y1="410.0104" x2="55.5254" y2="410.0104"><stop offset="0" stop-color="#191E14"/><stop offset="0.3656" stop-color="#1A1F17"/><stop offset="0.5846" stop-color="#1D231F"/><stop offset="0.765" stop-color="#22292D"/><stop offset="0.9234" stop-color="#293241"/><stop offset="1" stop-color="#2D374E"/></linearGradient><path fill="url(#SVGID_48_)" d="M45.1 409.2c-5.3 2.9-9.4 1.6-13.5-0.1 -4.1-1.7-4.6-3.2-7.7-0.7 -3.1 2.5-4.1-3.3-5.6-0.6 -1.5 2.7-2-4.7-5.2-1.1 -1.8 2-2.8 5.4-5.1 3.9 -1.9-1.3-3.1 2.6-3.5 3.8 6.4-2.1 6.3-4 10.6-1.9 4.5 2.2 6.7 2.4 12 0 5.3-2.3 13.2 0.2 18 0.1 4.8-0.1 4.5-3 8.2-5.5 0.7-0.5 1.4-0.7 2.2-0.9l0 0C55.5 406.2 50.4 406.2 45.1 409.2z"/><linearGradient id="SVGID_49_" gradientUnits="userSpaceOnUse" x1="3.5586" y1="410.9272" x2="68.3164" y2="410.9272"><stop offset="0" stop-color="#25293D"/><stop offset="0.489" stop-color="#272D42"/><stop offset="1" stop-color="#2D374E"/></linearGradient><path fill="url(#SVGID_49_)" d="M68.2 411.8c0 0-0.2-0.1-0.7-0.3 -0.5-0.2-1.2-0.5-2-0.9 -0.9-0.4-1.9-0.9-3.1-1.5 -1.2-0.5-2.6-1.1-4-1.4 -1.5-0.3-2.9-0.3-4 0.6 0 0-0.1 0.1-0.1 0l-0.1 0.1 -0.3 0.2c-0.2 0.2-0.3 0.3-0.5 0.4 -0.3 0.3-0.6 0.6-0.9 0.9 -0.6 0.7-1.1 1.5-2 2.4 -0.5 0.4-1 0.9-1.6 1.2 -0.6 0.3-1.3 0.5-1.9 0.6 -0.6 0.1-1.2 0.2-1.9 0.2l-0.8 0 -0.9 0c-2.3-0.1-4.4-0.5-6.5-0.7 -2.1-0.3-4.2-0.4-6.1-0.2 -0.9 0.1-1.8 0.3-2.7 0.6 -1 0.4-1.9 0.7-3 1.1l-0.8 0.2 -0.8 0.2 -0.8 0.1c-0.3 0-0.6 0-0.9 0 -0.3 0-0.6 0-0.9 0 -0.3 0-0.6-0.1-0.8-0.1 -0.6 0-1.1-0.2-1.6-0.4 -2-0.6-3.6-1.7-4.9-2.3 -0.7-0.3-1.2-0.4-1.8-0.4 -0.6 0-1.2 0.3-1.8 0.5 -1.2 0.5-2.4 0.9-3.3 1.1 -0.9 0.3-1.7 0.4-2.2 0.5 -0.5 0.1-0.8 0.1-0.8 0.1l-0.1-0.2c0 0 0.3-0.1 0.7-0.2 0.5-0.1 1.2-0.4 2.1-0.7 0.9-0.3 1.9-0.8 3.1-1.4 0.6-0.3 1.3-0.6 2-0.7 0.8-0.2 1.6 0 2.4 0.2 1.6 0.6 3.1 1.5 4.9 1.9 1.8 0.5 3.8 0.3 5.7-0.3 1-0.3 1.9-0.7 2.9-1.1 1-0.4 2.1-0.6 3.1-0.8 2.2-0.2 4.4-0.1 6.5 0.1 2.2 0.2 4.3 0.6 6.4 0.8 1.1 0.1 2.1 0.1 3.1-0.1 1-0.2 1.9-0.6 2.7-1.3 0.7-0.7 1.3-1.5 2-2.2 0.7-0.7 1.4-1.4 2.2-1.9 0.8-0.5 1.7-0.8 2.6-0.8 0.9 0 1.8 0.1 2.6 0.4 1.6 0.5 2.9 1.2 4.1 1.8 1.2 0.6 2.2 1.2 3 1.7 1.6 1 2.6 1.6 2.6 1.6L68.2 411.8z"/><path opacity="0.2" fill="#FFFFFF" d="M40.5 404.3c0 0-0.1-0.4-0.2-1 -0.1-0.7-0.3-1.6-0.4-2.9 -0.2-1.2-0.4-2.8-0.6-4.5 -0.2-1.7-0.5-3.7-0.7-5.9 -0.2-2.1-0.5-4.5-0.7-6.9 -0.3-2.5-0.6-5.1-0.8-7.7 -0.2-2.7-0.5-5.5-0.7-8.3 -0.2-2.8-0.4-5.7-0.6-8.6 -0.2-2.9-0.3-5.7-0.5-8.6 -0.2-2.8-0.3-5.6-0.4-8.3 -0.1-2.7-0.2-5.3-0.3-7.8 -0.1-2.5-0.1-4.8-0.2-7 -0.1-2.2-0.1-4.1-0.1-5.9 0-1.8 0-3.3 0-4.6 0-1.3 0-2.3 0-2.9 0-0.7 0-1 0-1l0.2 0c0 0 1.6 23 3.1 45.9 1.5 23 2.9 45.9 2.9 45.9L40.5 404.3z"/><path opacity="0.2" fill="#FFFFFF" d="M24.8 312.4c0 0 0 0.4 0.1 1 0 0.7 0.1 1.7 0.1 2.9 0 1.2 0.1 2.8 0.2 4.5 0.1 1.7 0.1 3.7 0.1 5.8 0 2.1 0 4.5 0.1 6.9 0 2.5 0.1 5 0 7.7 0 2.7 0 5.4-0.1 8.2 -0.1 2.8-0.1 5.7-0.2 8.5 -0.1 2.8-0.2 5.7-0.3 8.5 -0.1 2.8-0.3 5.6-0.4 8.2 -0.1 2.7-0.3 5.2-0.5 7.7 -0.2 2.4-0.3 4.8-0.5 6.9 -0.1 2.1-0.3 4.1-0.5 5.8 -0.2 1.7-0.3 3.2-0.4 4.5 -0.1 1.2-0.3 2.2-0.3 2.9 -0.1 0.7-0.1 1-0.1 1l-0.2 0c0 0 0.7-22.8 1.4-45.6 0.8-22.8 1.6-45.6 1.6-45.6L24.8 312.4z"/><g opacity="0.4"><path fill="#FFFFFF" d="M39.5 312c0 0 0.2 1.3 0.5 3.7 0.3 2.4 0.9 5.7 1.4 9.7 0.5 4 1.2 8.7 1.8 13.8 0.6 5.1 1.2 10.5 1.9 15.8 0.6 5.4 1.1 10.8 1.6 15.9 0.5 5.1 0.9 9.8 1.3 13.9 0.4 4.1 0.6 7.5 0.7 9.8 0.2 2.4 0.3 3.7 0.3 3.7l-0.1 0c0 0-2.4-21.6-4.8-43.2C41.8 333.6 39.4 312 39.5 312L39.5 312z"/></g></g><defs><filter id="Adobe_OpacityMaskFilter_20_" filterUnits="userSpaceOnUse" x="37.6" y="278.9" width="481.9" height="55.6"><feColorMatrix type="matrix" values="1 0 0 0 0  0 1 0 0 0  0 0 1 0 0  0 0 0 1 0"/></filter></defs><mask maskUnits="userSpaceOnUse" x="37.6" y="278.9" width="481.9" height="55.6" id="SVGID_50_"><g filter="url(#Adobe_OpacityMaskFilter_20_)"><defs><filter id="Adobe_OpacityMaskFilter_21_" filterUnits="userSpaceOnUse" x="37.6" y="278.9" width="481.9" height="55.6"><feFlood result="back" style="flood-color:white;flood-opacity:1"/><feBlend in="SourceGraphic" in2="back" mode="normal"/></filter></defs><mask maskUnits="userSpaceOnUse" x="37.6" y="278.9" width="481.9" height="55.6" id="SVGID_50_"><g filter="url(#Adobe_OpacityMaskFilter_21_)"/></mask><linearGradient id="SVGID_51_" gradientUnits="userSpaceOnUse" x1="37.6192" y1="306.7437" x2="519.5449" y2="306.7437"><stop offset="0.3518" stop-color="#4D4D4D"/><stop offset="0.4741" stop-color="#454545"/><stop offset="0.6538" stop-color="#323232"/><stop offset="0.8678" stop-color="#111111"/><stop offset="0.9673" stop-color="#000000"/></linearGradient><polygon clip-path="url(#SVGID_2_)" mask="url(#SVGID_50_)" fill="url(#SVGID_51_)" points="37.6 304.5 519.5 334.5 519.5 278.9 37.6 298.9 "/></g></mask><linearGradient id="SVGID_52_" gradientUnits="userSpaceOnUse" x1="37.6192" y1="306.7437" x2="519.5449" y2="306.7437"><stop offset="0.3518" stop-color="#FFF6D2"/><stop offset="0.4133" stop-color="#FFF6CB"/><stop offset="0.5039" stop-color="#FFF5B7"/><stop offset="0.6123" stop-color="#FFF597"/><stop offset="0.7346" stop-color="#FFF46A"/><stop offset="0.8666" stop-color="#FFF330"/><stop offset="0.9673" stop-color="#FFF200"/></linearGradient><polygon clip-path="url(#SVGID_2_)" fill="url(#SVGID_52_)" points="37.6 304.5 519.5 334.5 519.5 278.9 37.6 298.9 " fill-opacity="0.15"/><path clip-path="url(#SVGID_2_)" fill="#231F20" d="M239.3 270.7c0 0 6.7 0.7 8.4 2.1 1.6 1.4 1.1-2.8 4.2-3.7 3.2-0.9-2.4 0.1-3.2 1.5C248 272 244.4 270 239.3 270.7z"/><path clip-path="url(#SVGID_2_)" fill="#231F20" d="M309.1 263.9c0 0 6.7 0.7 8.4 2.1 1.6 1.4 1.1-2.8 4.2-3.7 3.2-0.9-2.4 0.1-3.2 1.5C317.8 265.3 314.2 263.2 309.1 263.9z"/><path clip-path="url(#SVGID_2_)" fill="#231F20" d="M344.8 275.9c0 0 7.5 0.8 9.3 2.4 1.8 1.6 1.2-3.1 4.7-4.1 3.5-1-2.7 0.1-3.6 1.7C354.4 277.5 350.5 275.2 344.8 275.9z"/><path clip-path="url(#SVGID_2_)" fill="#231F20" d="M212.8 291.8c0 0 7.5 0.8 9.3 2.3 1.8 1.6 1.2-3.1 4.7-4.1 3.5-1-2.7 0.1-3.6 1.7C222.4 293.3 218.5 291 212.8 291.8z"/><path clip-path="url(#SVGID_2_)" fill="#231F20" d="M268.8 258.9c0 0 6.7 0.7 8.4 2.1 1.6 1.4 1.1-2.8 4.2-3.7 3.2-0.9-2.4 0.1-3.2 1.5C277.4 260.3 273.9 258.2 268.8 258.9z"/><g clip-path="url(#SVGID_2_)"><radialGradient id="SVGID_53_" cx="110.1094" cy="358.2046" r="2.0322" gradientUnits="userSpaceOnUse"><stop offset="0" stop-color="#FFFFFF"/><stop offset="0.9944" stop-color="#FFFFFF"/></radialGradient><polygon fill="url(#SVGID_53_)" points="110.1 356.2 110.2 358.4 112.2 357.7 110.2 358.5 111.4 360.2 110.1 358.5 108.8 360.2 110.1 358.5 108 357.7 110.1 358.4 "/></g><g clip-path="url(#SVGID_2_)"><radialGradient id="SVGID_64_" cx="492.583" cy="257.3321" r="4.0638" gradientUnits="userSpaceOnUse"><stop offset="0" stop-color="#FFFFFF"/><stop offset="0.9944" stop-color="#FFFFFF"/></radialGradient><polygon fill="url(#SVGID_64_)" points="492.6 253.4 492.7 257.7 496.7 256.4 492.7 257.8 495.2 261.3 492.6 257.9 490 261.3 492.5 257.8 488.4 256.4 492.5 257.7 "/></g><g clip-path="url(#SVGID_2_)"><radialGradient id="SVGID_75_" cx="365.2881" cy="236.8643" r="4.0638" gradientUnits="userSpaceOnUse"><stop offset="0" stop-color="#FFFFFF"/><stop offset="0.9944" stop-color="#FFFFFF"/></radialGradient><polygon fill="url(#SVGID_75_)" points="365.3 232.9 365.4 237.3 369.5 235.9 365.4 237.4 367.9 240.8 365.3 237.4 362.7 240.8 365.2 237.4 361.1 235.9 365.2 237.2 "/></g><g clip-path="url(#SVGID_2_)"><radialGradient id="SVGID_86_" cx="147.1523" cy="227.2193" r="3.095" gradientUnits="userSpaceOnUse"><stop offset="0" stop-color="#FFFFFF"/><stop offset="0.9944" stop-color="#FFFFFF"/></radialGradient><polygon fill="url(#SVGID_86_)" points="147.2 224.2 147.3 227.5 150.3 226.5 147.3 227.6 149.1 230.2 147.2 227.7 145.2 230.2 147.1 227.6 144 226.5 147.1 227.5 "/></g><g clip-path="url(#SVGID_2_)"><radialGradient id="SVGID_97_" cx="83.9707" cy="270.6451" r="2.0316" gradientUnits="userSpaceOnUse"><stop offset="0" stop-color="#FFFFFF"/><stop offset="0.9944" stop-color="#FFFFFF"/></radialGradient><polygon fill="url(#SVGID_97_)" points="84 268.7 84 270.8 86.1 270.2 84 270.9 85.3 272.6 84 270.9 82.7 272.6 83.9 270.9 81.9 270.2 83.9 270.8 "/></g><g clip-path="url(#SVGID_2_)"><radialGradient id="SVGID_108_" cx="466.2988" cy="53.7037" r="2.1484" gradientUnits="userSpaceOnUse"><stop offset="0" stop-color="#FFFFFF"/><stop offset="0.9944" stop-color="#FFFFFF"/></radialGradient><polygon fill="url(#SVGID_108_)" points="466.3 51.6 466.4 53.9 468.5 53.2 466.4 54 467.7 55.8 466.3 54 464.9 55.8 466.2 54 464.1 53.2 466.3 53.9 "/></g><g clip-path="url(#SVGID_2_)"><radialGradient id="SVGID_119_" cx="291.1953" cy="124.5303" r="4.0638" gradientUnits="userSpaceOnUse"><stop offset="0" stop-color="#FFFFFF"/><stop offset="0.9944" stop-color="#FFFFFF"/></radialGradient><polygon fill="url(#SVGID_119_)" points="291.2 120.6 291.3 124.9 295.4 123.6 291.3 125 293.8 128.5 291.2 125.1 288.6 128.5 291.1 125 287 123.6 291.1 124.9 "/></g><g clip-path="url(#SVGID_2_)"><radialGradient id="SVGID_130_" cx="418.9932" cy="346.3638" r="2.0199" gradientUnits="userSpaceOnUse"><stop offset="0" stop-color="#FFFFFF"/><stop offset="0.9944" stop-color="#FFFFFF"/></radialGradient><polygon fill="url(#SVGID_130_)" points="419 344.4 419.1 346.6 421.1 345.9 419.1 346.6 420.3 348.3 419 346.7 417.7 348.3 418.9 346.6 416.9 345.9 419 346.5 "/></g><g clip-path="url(#SVGID_2_)"><radialGradient id="SVGID_141_" cx="28.419" cy="31.7012" r="4.0638" gradientUnits="userSpaceOnUse"><stop offset="0" stop-color="#FFFFFF"/><stop offset="0.9944" stop-color="#FFFFFF"/></radialGradient><polygon fill="url(#SVGID_141_)" points="28.4 27.7 28.6 32.1 32.6 30.8 28.6 32.2 31 35.7 28.4 32.3 25.8 35.7 28.3 32.2 24.3 30.8 28.4 32.1 "/></g></g></svg>